<svg width="69" height="94" viewBox="0 0 69 94" fill="none" xmlns="http://www.w3.org/2000/svg">
<path d="M39.2168 93.2865C54.3719 93.2865 66.6575 93.1157 66.6575 92.905C66.6575 92.6943 54.3719 92.5235 39.2168 92.5235C24.0616 92.5235 11.776 92.6943 11.776 92.905C11.776 93.1157 24.0616 93.2865 39.2168 93.2865Z" fill="#5D5D5D"/>
<path d="M56.684 29.9848C59.7633 28.9765 64.8317 27.8593 61.1803 24.6165C57.665 21.51 61.9977 18.2128 57.556 15.297C53.305 12.5175 56.3843 8.23927 50.0623 9.52002C38.0178 6.87677 45.8385 33.5818 56.684 29.9848Z" fill="#93542A"/>
<path d="M49.7898 26.6875C50.0623 29.14 44.9665 40.1217 44.3398 40.149C42.7593 40.2035 48.9178 18.7305 49.7898 26.6875Z" fill="#FFC397"/>
<path d="M44.8303 35.0533C45.4026 34.5355 46.0293 34.045 46.7378 33.5818C47.1738 33.282 47.6371 33.0095 48.1003 32.737C49.1358 30.1755 49.9261 27.723 49.8171 26.6875C49.2176 21.3465 46.2473 29.2763 44.8303 35.0533Z" fill="#EF8F6F"/>
<path d="M45.0755 39.1408C44.2852 41.2663 36.4645 45.8443 34.6933 46.8798C34.5843 46.7163 34.6115 46.4983 34.8023 46.3075C38.045 42.983 43.1408 39.4133 44.2852 37.7238C44.5577 37.3423 44.8847 38.7048 45.0755 39.1408Z" fill="#FFC397"/>
<path d="M61.1803 24.6165C57.665 21.51 61.9978 18.2128 57.556 15.297C54.7765 13.4713 55.1035 11.0733 53.9045 9.92877C54.1498 11.0188 51.125 12.572 51.4793 15.188C52.0243 19.0848 50.1168 19.7115 47.0103 18.9758C45.8658 18.7033 44.8575 18.0493 44.0673 17.15C44.7485 23.8808 49.817 32.2465 56.684 29.9848C59.7633 28.9765 64.859 27.8593 61.1803 24.6165Z" fill="#7F4220"/>
<path d="M46.3291 18.5943C46.2746 19.766 46.1111 21.1285 46.6016 22.5455C47.8551 26.2243 50.6346 28.9765 52.8963 28.813C55.2398 28.6495 56.2753 25.4613 55.1035 21.5373C54.395 19.1665 53.0598 17.1228 51.561 15.9238C51.8063 19.4118 49.1903 19.9568 46.3291 18.5943Z" fill="#6B3418"/>
<path d="M40.443 72.2768C41.097 66.4998 44.1762 50.831 45.4297 48.8145C49.381 42.438 52.5148 50.2315 51.997 51.9755C51.4793 53.6923 41.5875 72.6855 41.5875 72.6855L40.443 72.2768Z" fill="#FFC397"/>
<path d="M47.4736 46.6073C49.4901 47.1795 50.8526 50.9128 50.5256 52.0573C50.1168 53.6105 42.5413 69.1975 40.988 72.4403L41.5875 72.631C41.5875 72.631 51.4793 53.665 51.9971 51.921C52.4331 50.5313 50.3893 45.0268 47.4736 46.6073Z" fill="#EF8F6F"/>
<path d="M45.4298 48.7873C44.8303 49.741 43.822 53.8013 42.8683 58.4065C44.5033 58.9788 46.3835 59.3603 48.3728 59.4965C50.2258 55.8178 51.8063 52.6295 51.9971 51.9483C52.5148 50.2315 49.381 42.4108 45.4298 48.7873Z" fill="#EF8F6F"/>
<path d="M56.4388 74.2115C55.3216 65.9003 51.5883 52.9293 51.9971 49.3323C52.2696 47.0433 58.3191 46.8525 58.9186 48.4875C60.6081 53.011 57.3381 74.0208 57.3381 74.0208L56.4388 74.2115Z" fill="#FFC397"/>
<path d="M58.9186 48.4875C58.4553 47.234 54.7765 47.0705 52.978 48.0788C54.8855 47.4248 57.7741 47.6973 58.1828 48.7873C59.7906 53.0928 56.9293 72.2495 56.6296 74.157L57.338 73.9935C57.338 73.9935 60.6081 53.011 58.9186 48.4875Z" fill="#EF8F6F"/>
<path d="M58.9186 48.5148C58.3191 46.8253 52.2696 47.016 51.9971 49.414C51.8063 51.1308 52.4603 54.864 53.3596 59.2513C54.3678 59.0878 55.4306 58.8153 56.4661 58.461C57.4743 58.1068 58.4008 57.698 59.2728 57.2348C59.4908 53.3925 59.4636 50.068 58.9186 48.5148Z" fill="#EF8F6F"/>
<path d="M45.0755 51.1035C46.1655 46.253 50.035 36.443 43.5222 32.6825C43.5222 32.6825 44.8575 23.8535 50.798 23.8535C57.0927 23.8263 55.4032 28.7313 54.2587 32.4918C53.6592 34.481 49.49 38.1325 57.447 47.3703C63.2785 54.101 46.8195 57.2348 45.0755 51.1035Z" fill="#FFC397"/>
<path d="M57.7196 47.2068C49.7898 37.969 53.6866 34.481 54.2861 32.4918C55.0491 29.903 56.1118 26.7965 54.6403 25.0798C54.5041 25.652 54.0136 25.7338 53.5776 26.3605C52.0516 28.5405 50.5801 30.666 46.8196 30.0938C44.9666 29.794 45.2663 27.4233 48.8633 24.235C44.2308 26.633 43.5496 32.6825 43.5496 32.6825C50.0623 36.443 45.8931 46.0623 44.7758 50.9128C46.4926 57.0713 63.5239 53.9648 57.7196 47.2068Z" fill="#F7A27C"/>
<path d="M42.8955 56.3628C43.2498 57.7525 48.2638 58.4883 49.7353 57.9978C49.7353 57.9978 50.9343 54.6733 51.3975 54.7005C51.8335 54.7278 52.542 57.7525 52.542 57.7525C52.542 57.7525 57.2563 57.2893 59.7633 55.1638C59.7633 55.1638 60.39 48.3785 57.0655 45.9805C57.0655 45.9805 51.0705 50.6675 45.239 48.4603L42.8955 56.3628Z" fill="#7069AF"/>
<path d="M49.8715 54.864C49.1903 55.5453 48.5363 56.3628 47.4463 58.1068C48.4 58.1885 49.2448 58.1613 49.708 57.9978C49.708 57.9978 50.907 54.6733 51.3703 54.7005C51.4793 54.7005 51.6155 54.9185 51.7517 55.2455C51.4792 53.9648 50.798 53.9375 49.8715 54.864Z" fill="#605696"/>
<path d="M57.0384 45.9805C57.0384 45.9805 56.2481 46.58 54.9946 47.2613C55.9211 48.76 56.7386 50.8855 57.2564 53.338C57.4744 54.4008 57.6106 55.4363 57.6924 56.4173C58.4281 56.0903 59.1639 55.6815 59.7361 55.1638C59.7361 55.191 60.3629 48.3785 57.0384 45.9805Z" fill="#605696"/>
<path d="M57.3925 46.5801C57.2562 46.4711 57.1472 46.3621 57.011 46.2531C57.011 46.2531 51.016 50.9128 45.1572 48.7056L45.021 49.1961C51.0705 51.4306 57.2562 46.6891 57.3925 46.5801Z" fill="#605696"/>
<path d="M52.4058 57.2075C52.5148 57.6435 52.5965 57.9705 52.5965 57.9705C52.5965 57.9705 57.12 57.48 59.518 55.4908C59.518 55.4908 59.5725 55.0275 59.5725 54.319C57.9102 55.6815 55.376 56.7715 52.4058 57.2075Z" fill="#605696"/>
<path d="M43.1135 55.736C42.9773 56.172 42.8683 56.499 42.8683 56.499C42.8683 56.499 46.5471 58.4065 49.4356 57.916C49.4356 57.916 49.7081 57.5345 50.0896 56.935C48.1003 57.2348 45.5933 56.8533 43.1135 55.736Z" fill="#605696"/>
<path d="M45.1573 46.6073C48.8633 48.4875 55.3487 45.381 56.6295 44.2638C56.6295 44.2638 53.414 39.9038 53.959 36.552C54.4767 33.4455 57.6377 28.6223 54.8855 25.1343C54.6402 24.8345 54.1225 24.889 53.9862 25.2705C53.4412 27.0145 51.779 31.1565 47.2828 30.448C43.8765 29.903 45.1028 27.5868 46.765 25.8973C47.9095 24.7255 49.3538 23.9625 49.3538 23.9625C49.3538 23.9625 44.476 24.9708 43.1135 32.7098C43.1135 32.7098 45.9748 35.8163 46.0838 39.1953C46.22 42.002 45.5933 43.7188 45.1573 46.6073Z" fill="#FFEBCA"/>
<path d="M53.9863 36.5793C54.5041 33.5 57.5833 28.7858 55.0218 25.2978C53.7138 24.5348 54.1498 28.268 53.3868 29.794C51.4248 33.827 46.4654 33.9905 43.3589 32.4645C43.3044 32.4373 43.2499 32.41 43.1954 32.3828C43.1681 32.4918 43.1409 32.6008 43.1409 32.737C43.1409 32.737 44.1764 33.8543 45.0211 35.4893C45.0484 35.462 45.0756 35.462 45.1301 35.4348C47.5008 34.481 50.8798 37.315 52.7056 41.7568C53.2778 43.1465 53.6321 44.5635 53.7683 45.8443C55.1308 45.272 56.1936 44.6453 56.6296 44.2638C56.6296 44.2638 53.4141 39.9038 53.9863 36.5793Z" fill="#F2CAAA"/>
<path d="M55.921 30.1483C56.4116 27.3688 55.4578 25.4885 54.8038 25.434C54.1498 25.3795 53.9318 28.0773 53.523 29.9575C53.1142 31.8378 53.3867 33.391 54.0135 33.609C54.722 33.8543 55.594 32.0285 55.921 30.1483Z" fill="#C6926F"/>
<path d="M55.7848 29.9302C56.0573 28.159 55.2943 25.4885 54.7493 25.4067C54.2043 25.325 54.1226 27.8592 53.8501 29.6032C53.5776 31.3745 53.7683 32.846 54.3133 32.955C54.8311 33.0367 55.4851 31.6742 55.7848 29.9302Z" fill="#F7A27C"/>
<path d="M40.6883 91.924C40.7156 89.5805 39.0533 74.375 40.7428 71.5956L41.6966 71.9498C41.6966 71.9498 42.9501 75.683 42.9501 77.209C42.9501 78.735 41.2878 88.654 41.5876 92.0058L40.6883 91.924Z" fill="#FFC397"/>
<path d="M42.3233 76.882C42.2688 78.3535 41.0153 88.2453 41.1243 91.9785L41.5875 92.033C41.2878 88.654 42.95 78.7623 42.95 77.2363C42.95 75.7103 41.8873 71.977 41.8873 71.977L41.315 71.8135C41.533 72.631 42.3505 75.574 42.3233 76.882Z" fill="#EF8F6F"/>
<path d="M55.4578 91.5971C55.594 89.3353 54.8038 74.5386 56.6295 71.9771L57.556 72.3858C57.556 72.3858 58.5915 76.0646 58.5098 77.5633C58.428 79.0348 56.2208 88.4906 56.357 91.7606L55.4578 91.5971Z" fill="#FFC397"/>
<path d="M57.5834 72.1133L57.0111 72.0315C57.3654 73.5575 58.1556 76.5005 58.1284 77.5633C58.0739 79.0348 56.0574 88.3543 56.1936 91.7061L56.3571 91.7333C56.2481 88.4633 58.4281 79.0075 58.5098 77.536C58.5916 76.0645 57.5834 72.1133 57.5834 72.1133Z" fill="#EF8F6F"/>
<path d="M49.3538 24.3985L48.8361 19.6298L52.0515 18.4035L52.651 24.2078C52.651 24.235 50.8253 26.0063 49.3538 24.3985Z" fill="#EF8F6F"/>
<path d="M57.4199 46.1713C57.2836 46.0623 57.1746 45.9533 57.0384 45.8443C57.0384 45.8443 51.0433 50.5313 45.2118 48.324L45.0756 48.8145C51.1251 50.9945 57.2836 46.253 57.4199 46.1713Z" fill="#B8AEED"/>
<path d="M46.3563 30.0938L47.964 28.6495L47.3373 30.2845L46.3563 30.0938Z" fill="#F7A27C"/>
<path d="M49.708 53.8013C49.708 53.8013 51.0977 54.319 52.8417 53.665C52.8417 53.665 52.324 54.8095 51.125 54.7005C49.9533 54.5915 49.708 53.8013 49.708 53.8013Z" fill="#605696"/>
<path d="M42.8683 56.1448L42.7048 56.6353C43.0591 58.0523 48.1821 58.9243 49.7081 58.4338C49.7081 58.4338 49.8443 58.0523 50.0623 57.5618C47.3101 57.589 44.8031 57.0713 42.8683 56.1448Z" fill="#B8AEED"/>
<path d="M52.2423 57.48C52.3786 57.9705 52.4603 58.352 52.4603 58.352C52.4603 58.352 57.3925 57.8888 59.9813 55.6543C59.9813 55.6543 60.0358 55.1365 60.0358 54.3463C58.21 55.845 55.4578 57.0168 52.2423 57.48Z" fill="#B8AEED"/>
<path d="M45.8385 48.3513L46.1383 47.8063C46.1383 47.8063 48.5908 48.324 50.7708 47.6973C50.7708 47.6973 50.4438 49.1688 45.8385 48.3513Z" fill="#FFC397"/>
<path d="M52.2151 46.4438C52.0516 44.4818 51.2613 38.0508 51.0433 37.6693C50.8253 37.2878 52.9236 42.3018 53.0326 46.144C52.5693 46.3348 52.2151 46.4438 52.2151 46.4438Z" fill="#F2CAAA"/>
<path d="M48.9451 52.7658C48.5091 52.0573 48.6181 51.2125 49.2721 50.5313C49.5446 50.2315 49.4083 49.5503 49.3266 49.305L49.7081 49.1688C49.7353 49.2233 50.0623 50.2588 49.5718 50.7765C49.3266 51.049 48.8088 51.7303 49.2993 52.5205L48.9451 52.7658Z" fill="#B8AEED"/>
<path d="M52.324 51.7303C52.215 50.9128 51.6155 50.3405 50.7163 50.1498C50.3348 50.068 50.0078 49.4685 49.926 49.2233L49.5718 49.3323C49.599 49.3868 49.9805 50.395 50.6618 50.5313C50.9888 50.5858 51.8063 50.831 51.9425 51.7575L52.324 51.7303Z" fill="#B8AEED"/>
<path opacity="0.5" d="M54.9672 27.614C55.2942 27.4505 55.594 27.287 55.8938 27.0963C55.7575 26.5513 55.594 26.1425 55.376 25.8428C55.2397 25.5975 55.1035 25.3795 54.9128 25.1343C54.8038 24.998 54.6675 24.9435 54.504 24.9435C54.068 24.5075 53.4685 24.1805 52.651 23.9898L52.1877 19.6025C51.9152 19.7115 51.6427 19.8478 51.3702 19.984C50.5255 20.42 49.7352 20.9378 49.0812 21.4828L49.3537 23.9898C49.163 24.0443 48.618 24.2078 47.8822 24.6438C47.3645 24.9435 51.2612 29.4943 54.9672 27.614ZM49.3265 24.017V24.0443C49.2992 24.0443 49.2447 24.0715 49.2175 24.0715C49.2447 24.0443 49.2992 24.017 49.3265 24.017Z" fill="#C15A46"/>
<path d="M62.7336 37.0698C64.3413 38.8138 65.4041 48.2695 65.6493 50.4223C65.4586 50.4495 65.2678 50.3133 65.1861 50.068C63.4421 45.49 62.2431 39.0318 61.1803 37.1515C60.9351 36.7428 62.2703 37.0698 62.7336 37.0698Z" fill="#FFC397"/>
<path d="M54.3132 27.2325C54.722 29.6578 62.788 39.4405 63.4147 39.3588C64.9952 39.168 53.0052 19.3845 54.3132 27.2325Z" fill="#FFC397"/>
<path d="M52.3785 17.041C52.215 15.951 53.523 15.1607 54.1225 15.8692C54.7492 16.5505 52.9508 20.6653 52.3785 17.041Z" fill="#FFC397"/>
<path d="M52.8418 17.0955C52.7328 16.496 53.4686 16.06 53.8228 16.4415C54.1498 16.823 53.1688 19.112 52.8418 17.0955Z" fill="#EF8F6F"/>
<path d="M52.651 17.5588C52.542 16.9593 53.2778 16.5233 53.6321 16.9048C53.9591 17.2863 52.978 19.548 52.651 17.5588Z" fill="#FFC397"/>
<path d="M54.5858 44.9723L54.94 45.817L55.5123 45.5445L55.1308 44.7543L54.5858 44.9723Z" fill="#C65878"/>
<path d="M52.7055 21.292C52.4058 22.0278 50.253 23.6628 48.2637 23.4448C48.2637 23.4448 45.8657 20.0658 46.1655 18.458C46.2745 17.8858 46.2472 17.4225 46.1655 17.1228C45.8657 15.8693 46.1927 13.2805 47.6915 12.3813C48.5908 11.8363 50.7435 13.6893 51.779 14.8065C54.4223 17.6133 53.0053 20.5563 52.7055 21.292Z" fill="#FFC397"/>
<path d="M51.9698 14.9973C52.9508 17.3135 52.3513 20.529 52.1878 21.1557C51.9971 21.9187 50.1986 23.4447 48.2366 23.4175C48.2366 23.4447 48.2638 23.4447 48.2638 23.4447C50.2531 23.6627 52.4058 22.0277 52.7056 21.292C53.0053 20.5562 54.3406 17.7495 51.9698 14.9973Z" fill="#F7A27C"/>
<path d="M46.1929 17.1227C46.2746 17.4225 46.3019 17.8857 46.1929 18.458C45.9749 19.657 46.6834 20.8832 47.3374 21.8915C47.6644 20.7742 47.6916 20.965 48.0186 19.4662C49.0541 14.4795 46.0839 15.8965 46.1384 16.5232C46.1111 16.7685 46.1384 16.9592 46.1929 17.1227Z" fill="#F7A27C"/>
<path d="M51.0706 16.4415C50.6618 15.951 49.6808 15.0245 48.2638 15.8148C49.3266 15.515 49.9533 15.5968 51.0706 16.4415Z" fill="#7F4632"/>
<path d="M48.2365 18.1855C48.509 18.0765 48.2638 18.785 48.2638 19.112C48.291 19.439 48.291 20.8833 47.3918 20.0658C46.8468 19.6025 47.746 19.6298 48.2365 18.1855Z" fill="#FFC397"/>
<path d="M47.8005 21.0195C47.746 21.292 48.5363 22.7635 49.0268 22.709C49.4083 22.6817 49.6263 21.2375 49.5173 20.965C49.3538 20.7742 48.073 20.856 47.8005 21.0195Z" fill="#472D1F"/>
<path d="M47.9913 21.0468C48.4818 20.9378 48.8633 20.856 49.3811 20.965C49.3811 20.965 49.3538 21.6735 48.9451 21.728C48.1821 21.8098 47.9913 21.0468 47.9913 21.0468Z" fill="#FCE7DE"/>
<path d="M50.0895 17.3408C50.035 16.9865 49.7625 16.7413 49.5173 16.7958C49.2721 16.8503 49.1086 17.1773 49.1903 17.5043C49.2448 17.8585 49.5173 18.1038 49.7625 18.0493C50.0078 18.022 50.144 17.695 50.0895 17.3408Z" fill="#5B371E"/>
<path d="M50.6346 17.1773C50.1441 16.823 49.4901 16.5233 48.6998 17.15C49.4628 16.932 50.0079 17.041 50.6346 17.1773Z" fill="#5B371E"/>
<path d="M47.6097 17.7223C47.528 17.3953 47.2827 17.1773 47.0647 17.2318C46.8467 17.3135 46.7377 17.6405 46.8467 17.9675C46.9285 18.2945 47.1737 18.5125 47.3917 18.458C47.6097 18.4035 47.7187 18.0765 47.6097 17.7223Z" fill="#5B371E"/>
<path d="M47.9368 17.3135C47.5008 17.0955 46.983 16.932 46.3835 17.6677C47.0103 17.2862 47.419 17.2862 47.9368 17.3135Z" fill="#5B371E"/>
<path d="M46.0565 16.5505C46.1928 16.278 46.7105 15.4333 47.964 15.8693C46.983 15.8148 46.547 15.951 46.0565 16.5505Z" fill="#7F4632"/>
<path d="M65.4314 48.3785C65.7583 48.978 67.5023 49.523 67.0118 50.068C66.5758 50.5585 65.1861 50.8582 64.8864 48.7328L65.4314 48.3785Z" fill="#FFC397"/>
<path d="M65.2678 49.741C66.0036 48.8417 67.0391 49.4685 67.2843 49.741C67.5568 50.0407 67.1753 50.831 66.7938 50.9945C66.4123 51.158 64.9681 50.068 65.2678 49.741Z" fill="#FFC397"/>
<path d="M66.0308 50.6403C66.0308 51.2398 65.7311 51.9756 65.4858 51.9483C65.2133 51.9483 65.5948 51.3215 65.4585 50.831C65.295 50.286 65.2406 49.9318 65.4858 49.8228C65.7038 49.6865 66.0308 50.0408 66.0308 50.6403Z" fill="#FFC397"/>
<path d="M67.0936 51.267C67.4478 51.6757 67.5023 51.9755 67.3661 52.0845C67.2298 52.1935 67.0391 51.9482 66.7121 51.5395C66.3579 51.1307 65.8129 50.722 65.9491 50.6402C66.0854 50.5312 66.7666 50.8582 67.0936 51.267Z" fill="#FFC397"/>
<path d="M67.6113 50.722C68.0473 51.049 68.2653 51.5395 68.1291 51.6485C68.0201 51.7575 67.6931 51.376 67.2571 51.049C66.8211 50.722 66.5486 50.504 66.6576 50.3678C66.7938 50.2588 67.1753 50.4223 67.6113 50.722Z" fill="#FFC397"/>
<path d="M67.6931 50.0135C68.1291 50.3405 68.2654 50.6402 68.1291 50.7765C68.0201 50.8855 67.7749 50.613 67.3661 50.2587C66.9301 49.9317 66.6576 49.6865 66.7666 49.5502C66.8756 49.4412 67.2571 49.6592 67.6931 50.0135Z" fill="#FFC397"/>
<path d="M36.4917 45.7898C36.0012 46.1713 35.9195 47.8608 35.2927 47.5065C34.7478 47.1795 34.121 45.9533 36.0285 45.3265L36.4917 45.7898Z" fill="#FFC397"/>
<path d="M35.2111 45.8715C36.2193 46.4165 35.8651 47.452 35.6744 47.7245C35.4564 48.0243 34.6389 47.8063 34.4209 47.4793C34.2029 47.1523 34.8296 45.6535 35.2111 45.8715Z" fill="#FFC397"/>
<path d="M34.5843 46.7162C34.0393 46.8252 33.2763 46.6617 33.249 46.4165C33.1945 46.1712 33.8485 46.4165 34.2845 46.1985C34.7478 45.9532 35.0748 45.8442 35.2383 46.0622C35.3745 46.2802 35.1293 46.6345 34.5843 46.7162Z" fill="#FFC397"/>
<path d="M34.2573 47.8062C33.9575 48.1877 33.685 48.2967 33.576 48.1877C33.4398 48.0787 33.6305 47.8607 33.9303 47.5065C34.23 47.125 34.4753 46.5528 34.5843 46.6618C34.6933 46.7708 34.5298 47.4248 34.2573 47.8062Z" fill="#FFC397"/>
<path d="M34.8568 48.1878C34.6661 48.651 34.2573 48.8963 34.1211 48.8145C33.9848 48.7328 34.2846 48.3785 34.4753 47.9153C34.6661 47.452 34.8296 47.1795 34.9658 47.2613C35.1021 47.3703 35.0476 47.7518 34.8568 48.1878Z" fill="#FFC397"/>
<path d="M35.5653 48.1332C35.3473 48.5692 35.102 48.76 34.9658 48.651C34.8295 48.5692 35.0475 48.2967 35.2383 47.8607C35.4563 47.4248 35.5925 47.125 35.7287 47.2068C35.8922 47.3158 35.756 47.6973 35.5653 48.1332Z" fill="#FFC397"/>
<path d="M52.542 18.7577C52.7327 16.7957 52.542 15.8692 53.5775 15.5422L51.888 13.4167C51.8607 13.4167 51.6972 16.9592 52.542 18.7577Z" fill="#7F4220"/>
<path d="M41.751 92.6598H38.2357C38.2357 92.6598 40.5247 91.3518 41.206 91.3518C41.86 91.3791 41.751 92.6598 41.751 92.6598Z" fill="#FFE0BB"/>
<path d="M57.7195 92.6598H54.2042C54.2042 92.6598 55.2397 91.3518 55.921 91.3518C56.6022 91.3791 57.7195 92.6598 57.7195 92.6598Z" fill="#FFE0BB"/>
<path d="M14.2559 62.058C14.5011 58.5155 14.9099 52.5478 12.3484 52.2208C12.0214 52.1663 11.7489 52.2753 11.5036 52.4933C9.95036 53.9375 10.4136 60.6955 10.4409 60.9953L10.7679 60.968C10.7679 60.8863 10.3046 54.101 11.7216 52.7385C11.8851 52.575 12.0759 52.5205 12.2939 52.5478C14.5556 52.8475 14.1469 58.8425 13.9289 62.0308L14.2559 62.058Z" fill="#5981A5"/>
<path d="M6.05359 78.3808L9.21456 60.1233L10.795 59.8508L9.62331 78.6805L6.05359 78.3808Z" fill="#80A6CE"/>
<path d="M16.1632 78.5715L15.7545 62.0308L10.795 59.8508L9.62329 78.6805L16.1632 78.5715Z" fill="#5981A5"/>
<path d="M15.7545 62.0308L10.795 59.8508L9.62329 78.6805L15.7545 62.0308Z" fill="#507A99"/>
<path d="M17.7166 61.9218C17.7166 61.9218 28.9163 66.636 29.325 73.721C29.7338 80.806 15.1006 65.8185 13.5746 63.3933L17.7166 61.9218Z" fill="#8E4365"/>
<path d="M28.5348 45.7353L30.0335 44.182L30.3605 41.675L29.3251 43.4463L25.5918 40.7485L28.5348 45.7353Z" fill="#8E4365"/>
<path d="M29.1343 38.4595L30.3333 40.2035L30.2515 42.7105L29.543 40.803L25.401 42.7923L29.1343 38.4595Z" fill="#AF4A73"/>
<path d="M25.1285 34.1268C25.619 34.154 30.088 31.5108 30.1425 30.339L32.0772 31.538C32.0772 31.538 31.3415 36.6065 26.0823 37.2878L25.1285 34.1268Z" fill="#AF4A73"/>
<path d="M14.4193 50.5313C14.7463 49.0598 15.4821 38.0508 14.6101 34.9443L16.7628 32.1103C16.7628 32.1103 19.5151 46.362 17.4441 55.5725L14.4193 50.5313Z" fill="#AF4A73"/>
<path d="M12.0212 53.5833C11.9395 53.7468 12.3482 53.7195 12.6207 53.8285C12.8932 53.9375 13.1385 53.9648 13.193 53.8013C13.2747 53.6378 13.084 53.3925 12.8115 53.2835C12.539 53.1473 12.103 53.3925 12.0212 53.5833Z" fill="#FFCD9C"/>
<path d="M12.7025 50.5312C12.4028 51.0762 11.1765 53.0927 11.6398 53.4742C11.885 53.665 12.321 53.9647 12.7025 53.3652C12.975 52.902 13.2202 51.7302 13.193 50.6675L12.7025 50.5312Z" fill="#FFCD9C"/>
<path d="M21.4771 10.3375C23.8751 11.4548 28.4258 13.553 28.8891 20.0658C29.1343 23.6083 27.6901 29.9575 22.6488 30.3118C17.6075 30.6388 14.0378 31.1293 15.2913 20.6653C16.572 10.2013 18.1798 8.62077 21.4771 10.3375Z" fill="#602721"/>
<path d="M14.9644 23.9353C14.9644 23.8535 14.9644 23.7718 14.9644 23.7173C14.9644 23.581 14.9644 23.4175 14.9644 23.2813C14.9644 23.0905 14.9644 22.8998 14.9916 22.709C15.0189 22.0278 15.0734 21.2648 15.1824 20.4473C16.0271 12.7083 17.0081 9.62902 19.1881 8.94777C19.8966 8.62077 20.6596 8.62077 21.5316 8.92052C21.7769 8.97502 21.9949 9.00227 22.2674 9.08402C22.4309 9.02952 22.5944 8.97502 22.7579 8.94777C23.2756 8.75702 23.8751 8.83877 24.5019 9.13852C25.9461 9.73802 27.3359 11.4548 28.5076 14.0163C29.3524 15.7875 29.9519 17.8585 30.1699 19.984C30.4969 23.581 28.8619 30.012 23.3846 30.3663C22.2674 30.448 21.2319 30.5025 20.2781 30.5025C21.0411 30.5025 21.8586 30.4208 22.7034 30.3663C27.7446 30.0393 28.9709 23.6628 28.7256 20.1203C28.4531 16.1963 26.7636 13.88 24.9379 12.4085C21.9404 12.5993 19.8694 16.4415 18.5614 21.9733C17.9619 24.5348 18.6431 28.159 16.5994 29.3853C16.0544 28.8948 15.6456 28.1863 15.3731 27.2325C15.3731 27.287 15.4004 27.3143 15.4004 27.3688C15.2096 26.7693 15.1006 26.0608 15.0461 25.216C14.9916 24.78 14.9644 24.3713 14.9644 23.9353Z" fill="#9E433C"/>
<path d="M28.6984 20.0931C28.5349 17.7768 27.8809 16.0328 27.0089 14.6703C27.6084 14.6158 28.1806 14.5613 28.6984 14.4523C29.4069 16.1146 29.9519 17.9948 30.1426 19.9296C30.4696 23.5266 28.8346 29.9576 23.3574 30.3118C22.2401 30.3936 21.2046 30.4481 20.2509 30.4481C21.0139 30.4481 21.8313 30.3663 22.6761 30.3118C27.7174 29.9848 28.9436 23.6083 28.6984 20.0931Z" fill="#77392F"/>
<path d="M14.9916 22.6818C15.0189 21.9733 15.0734 21.2375 15.1824 20.42C15.5639 16.823 15.9999 14.2615 16.5449 12.4358C17.7439 13.226 19.5696 13.9073 21.6679 14.316C20.3326 16.0055 19.2971 18.676 18.5341 21.946C17.9346 24.5075 18.6159 28.1318 16.5721 29.358C16.0271 28.8675 15.6184 28.159 15.3459 27.2053C15.3459 27.2598 15.3731 27.287 15.3731 27.3415C15.1824 26.742 15.0734 26.0335 15.0189 25.1888C14.9916 24.8073 14.9644 24.3985 14.9644 23.9353C14.9644 23.8535 14.9644 23.7718 14.9644 23.7173C14.9644 23.581 14.9644 23.4175 14.9644 23.2813C14.9916 23.0633 14.9916 22.8725 14.9916 22.6818Z" fill="#77392F"/>
<path d="M21.3408 20.2293L24.2293 20.7743L24.3383 27.8865L21.259 27.6958L21.3408 20.2293Z" fill="#EF8F6F"/>
<path d="M23.6571 25.979C24.6381 24.889 28.8074 30.0665 33.3309 35.5438C34.5299 36.988 34.6934 39.4133 32.2681 36.7973C27.1996 31.429 23.1394 26.524 23.6571 25.979Z" fill="#FFC397"/>
<path d="M30.9873 35.462C26.5456 30.6388 23.1938 26.4968 23.6298 25.979C24.5018 25.0253 27.8536 28.922 31.7231 33.6363C31.3961 34.0995 31.1508 34.7263 30.9873 35.462Z" fill="#EF8F6F"/>
<path d="M28.453 29.1945L32.1045 31.538C30.5512 33.391 29.325 34.263 26.1912 34.6173L26.1367 32.192C27.8807 31.0748 28.453 29.1945 28.453 29.1945Z" fill="#E06994"/>
<path d="M23.6843 57.2893L26.1367 57.8888C27.0087 72.3313 23.1393 83.6128 23.003 92.2238H22.0765C22.349 82.0868 24.2565 69.8516 23.6843 57.2893Z" fill="#FFC397"/>
<path d="M21.0683 57.48L18.6703 58.0795C17.226 72.413 20.496 83.6128 20.3053 92.1693H21.2045C21.3408 82.0595 20.0055 69.9333 21.0683 57.48Z" fill="#FFC397"/>
<path d="M23.6842 57.2893L26.1367 57.8888C26.382 62.1671 26.3547 67.8623 25.6462 72.0588C24.8832 71.3231 24.311 70.8871 23.5208 70.5601C23.6843 66.9086 23.8477 61.0771 23.6842 57.2893Z" fill="#EF8F6F"/>
<path d="M21.0683 57.48C20.7958 60.641 20.7685 65.4915 20.6595 68.5435C19.8965 68.1348 19.1063 67.8623 18.316 67.4808C18.1525 64.565 18.4523 60.3685 18.6703 58.0523L21.0683 57.48Z" fill="#EF8F6F"/>
<path d="M19.4878 26.4968C17.0898 25.8428 13.738 44.182 12.4573 51.4578L13.0295 51.7848C13.0295 51.7848 14.61 45.6808 16.3268 39.5495C18.316 32.5735 20.1963 26.6875 19.4878 26.4968Z" fill="#FFCD9C"/>
<path d="M15.046 38.2143C16.2178 32.2193 18.0435 26.1698 19.4878 26.4968C20.1963 26.6875 18.5885 32.41 16.463 39.0863C16.027 38.6775 15.5365 38.4868 15.046 38.2143Z" fill="#EF8F6F"/>
<path d="M17.0352 30.1755L14.61 34.9443C17.4167 36.6883 19.7602 37.1243 22.349 36.007L21.5042 32.8188C18.752 32.1375 17.0352 30.1755 17.0352 30.1755Z" fill="#E06994"/>
<path d="M17.4713 30.6115C18.2343 31.3473 19.4878 32.3283 21.5043 32.8188L22.3491 36.007C20.3598 36.879 18.5341 36.8245 16.5176 35.9525C16.7628 35.1078 17.7711 32.7098 17.4713 30.6115Z" fill="#CE5788"/>
<path d="M29.3251 73.721C27.9898 70.3965 25.2103 64.8103 13.5746 63.3933C13.5746 63.3933 14.7191 48.76 16.7628 40.585C17.3623 38.2415 16.6811 34.263 17.0081 32.2193C17.6348 28.268 18.6703 27.7775 19.0246 26.7148C19.5423 25.1343 25.2921 25.107 26.3003 27.0963C26.9271 28.3225 26.5456 34.7263 27.0088 42.547C27.8808 56.1175 29.3251 73.721 29.3251 73.721Z" fill="#D6859F"/>
<path d="M18.4522 63.5568C17.989 61.7583 17.7982 57.0713 17.3622 56.935C16.9262 56.7988 16.2722 63.0663 16.2722 63.0663L18.4522 63.5568Z" fill="#C46C8C"/>
<path d="M21.259 64.7285C22.5943 61.6765 22.785 55.7633 23.548 56.0358C24.3383 56.3083 24.8833 66.8268 24.8833 66.8268L21.259 64.7285Z" fill="#C46C8C"/>
<path d="M24.6653 25.8155L23.0848 29.4125L20.9594 25.6248C20.9594 25.6248 22.2673 25.325 22.9486 25.3795C23.6571 25.4068 24.6653 25.8155 24.6653 25.8155Z" fill="#FFBDD8"/>
<path d="M25.0741 26.1698C25.0468 26.1153 25.0196 26.0608 24.9923 25.979C25.6191 26.2243 26.1096 26.5785 26.3548 27.0418C27.1451 28.5133 27.6628 34.7535 27.1451 42.0293C27.9899 48.651 29.3251 73.6938 29.3251 73.6938C28.5894 71.868 27.4176 69.3883 24.6381 67.2628C25.1558 55.4635 26.9816 30.557 25.0741 26.1698Z" fill="#C46C8C"/>
<path d="M16.899 32.9278C18.9973 34.9443 23.3573 35.4348 26.2458 35.026L25.9733 41.13L16.9535 39.386L16.899 32.9278Z" fill="#C46C8C"/>
<path d="M26.055 45.9805L16.4086 42.4925L16.5176 41.7568L26.0005 43.5825L26.055 45.9805Z" fill="#C46C8C"/>
<path d="M16.7628 38.9228L16.1906 42.2745C19.515 42.7378 23.33 43.6915 27.9353 45.1085L27.6628 40.585C23.3845 40.4215 19.7603 39.822 16.7628 38.9228Z" fill="#F7A1C0"/>
<path d="M25.1286 40.4488L27.6628 40.585L27.9353 45.1085L24.9651 44.2365C25.4828 42.0293 25.2921 41.1845 25.1286 40.4488Z" fill="#DD85A9"/>
<path d="M33.7396 36.4975C35.4291 37.6693 32.8948 39.3588 29.1343 43.201C28.0171 44.3728 26.2458 45.6808 28.0988 43.0103C31.2598 38.405 33.3308 36.225 33.7396 36.4975Z" fill="#FFC397"/>
<path d="M24.8561 92.6598H21.7769C21.7769 92.6598 22.1584 91.0793 22.7306 91.2973C23.4391 91.5698 24.8561 92.6598 24.8561 92.6598Z" fill="#C6B38B"/>
<path d="M19.2971 92.6598H21.6134C21.6134 92.6598 21.0684 91.0793 20.5506 91.2973C19.9239 91.5698 19.2971 92.6598 19.2971 92.6598Z" fill="#C6B38B"/>
<path d="M24.3656 25.761L23.1666 28.4043L21.2864 25.543C21.2864 25.543 22.1856 24.7255 22.8941 24.78C23.5754 24.8345 24.3656 25.761 24.3656 25.761Z" fill="#EF8F6F"/>
<path d="M17.3623 30.7205L18.4523 26.3605L19.7604 25.9518C19.7604 25.9245 17.9346 29.685 17.3623 30.7205Z" fill="#FFBDD8"/>
<path d="M27.1178 30.993L26.6818 26.6603L25.51 26.1425C25.51 26.1698 26.6273 29.031 27.1178 30.993Z" fill="#FFBDD8"/>
<path d="M17.0898 39.059C18.5613 39.9038 21.9131 40.5305 24.0113 40.3398C21.2591 39.9855 19.6786 39.7403 17.0898 39.059Z" fill="#FFBDD8"/>
<path opacity="0.5" d="M18.0436 27.9683L18.4523 26.3605L19.7604 25.9518C19.7604 25.9518 19.7331 25.979 19.7058 26.0608C20.0328 25.87 20.4961 25.7338 20.9866 25.652V25.6248C20.9866 25.6248 21.1228 25.5975 21.3136 25.5703L21.3409 20.7743C21.5316 20.747 21.6951 20.747 21.8859 20.747C22.7034 20.747 23.4936 20.9105 24.2566 21.1558L24.3384 25.7065C24.5564 25.7883 24.7198 25.8428 24.7198 25.8428L24.6926 25.8973C24.8016 25.9245 24.9106 25.979 25.0196 26.0063C25.2104 26.088 25.4011 26.1698 25.5646 26.2788C25.5374 26.2243 25.5373 26.1698 25.5373 26.1698L26.7091 26.6875L26.7636 27.3143C27.3359 27.7503 24.9379 29.8758 22.0766 29.8758C20.3326 29.8758 17.8256 28.377 18.0436 27.9683Z" fill="#A0513C"/>
<path d="M20.5505 16.0873C21.368 13.444 22.894 11.7545 23.875 11.809C26.0005 11.9725 27.4175 15.9783 27.3085 19.4935C27.3085 20.4745 26.1913 23.3358 23.7115 24.2078C21.7223 23.5538 19.5695 21.2103 19.4877 19.548C19.3515 17.9675 20.4142 16.496 20.5505 16.0873Z" fill="#FFC397"/>
<path d="M20.0601 17.0683C19.9783 17.4498 19.9511 17.8313 19.9511 18.24C19.9511 20.2565 21.4771 22.6545 23.6843 24.2623C21.6951 23.6083 19.5423 21.2648 19.4606 19.6025C19.4061 18.6215 19.7603 17.7223 20.0601 17.0683Z" fill="#F7A27C"/>
<path d="M18.6831 17.4287C18.2366 17.6091 18.0939 18.2983 18.3645 18.9681C18.6352 19.6379 19.2165 20.0346 19.663 19.8542C20.1096 19.6738 20.2522 18.9846 19.9816 18.3148C19.711 17.645 19.1296 17.2483 18.6831 17.4287Z" fill="#FFC397"/>
<path d="M18.7098 17.7972C18.4169 17.9157 18.3258 18.3737 18.5064 18.8202C18.687 19.2666 19.0709 19.5324 19.3638 19.4139C19.6568 19.2954 19.7479 18.8374 19.5673 18.391C19.3867 17.9445 19.0028 17.6787 18.7098 17.7972Z" fill="#EF8F6F"/>
<path d="M19.1428 18.5263C18.9336 18.6109 18.8645 18.9284 18.9886 19.2353C19.1128 19.5423 19.3831 19.7225 19.5924 19.6379C19.8016 19.5533 19.8707 19.2358 19.7466 18.9289C19.6224 18.6219 19.3521 18.4417 19.1428 18.5263Z" fill="#FFC397"/>
<path d="M20.0601 20.1203C20.0328 18.8395 19.8693 17.4225 18.6158 16.7958L19.8966 14.534C19.8966 14.534 20.3871 15.7875 20.5506 16.7413C20.7141 17.7495 20.6596 18.567 20.0601 20.1203Z" fill="#77392F"/>
<path d="M23.3301 21.3465C23.2211 21.7553 23.9296 22.9815 24.4746 22.927C24.8834 22.8998 25.5919 21.8098 25.5646 21.401C25.4284 21.1558 23.7388 21.1558 23.3301 21.3465Z" fill="#472D1F"/>
<path d="M23.5753 21.4283C24.2566 21.292 24.7743 21.2103 25.3738 21.4283C25.3738 21.4283 25.1013 22.3548 24.5836 22.4093C23.7116 22.491 23.5753 21.4283 23.5753 21.4283Z" fill="#FCE7DE"/>
<path d="M26.4911 17.8858C26.4366 17.5588 26.2186 17.3135 25.9734 17.3408C25.7281 17.3953 25.5646 17.695 25.6191 18.022C25.6736 18.349 25.8916 18.5943 26.1369 18.567C26.3821 18.5125 26.5456 18.2128 26.4911 17.8858Z" fill="#5B371E"/>
<path d="M27.0361 17.7495C26.5728 17.3953 25.9734 17.0955 25.1559 17.6678C25.9189 17.477 26.4366 17.586 27.0361 17.7495Z" fill="#5B371E"/>
<path d="M22.2672 17.9675C22.2945 17.6133 22.5125 17.368 22.7578 17.3953C23.003 17.4225 23.1938 17.7223 23.1665 18.0493C23.1393 18.4035 22.9212 18.6488 22.676 18.6215C22.4035 18.5943 22.24 18.2945 22.2672 17.9675Z" fill="#5B371E"/>
<path d="M21.7223 17.8585C22.1583 17.477 22.7306 17.1228 23.5753 17.6405C22.7851 17.5043 22.2945 17.6678 21.7223 17.8585Z" fill="#5B371E"/>
<path d="M21.3135 16.823C21.5042 16.4688 22.1855 15.4605 23.7387 16.06C22.5125 15.951 21.9402 16.1145 21.3135 16.823Z" fill="#7F4632"/>
<path d="M27.3359 16.823C27.1451 16.4688 26.4639 15.4605 24.9106 16.06C26.1096 15.951 26.6819 16.1145 27.3359 16.823Z" fill="#7F4632"/>
<path d="M23.6298 20.2838C23.6298 20.0658 23.9568 19.0848 24.3928 19.0848C24.8288 19.0848 25.2103 20.0385 25.2103 20.2838C25.2103 20.5018 24.856 20.6925 24.42 20.6925C23.984 20.6925 23.6298 20.5018 23.6298 20.2838Z" fill="#F7A27C"/>
<path d="M24.1748 20.093C24.1203 19.875 24.0385 18.9213 24.311 18.8668C24.5835 18.785 25.0467 19.6298 25.1285 19.8205C25.183 20.0385 25.0195 20.2838 24.7743 20.3383C24.4745 20.42 24.2293 20.311 24.1748 20.093Z" fill="#FFC397"/>
<path d="M12.7025 53.7468C12.866 53.774 12.975 53.4743 13.0295 53.12C13.1113 52.7658 13.1113 52.4933 12.9478 52.466C12.7843 52.4388 12.5935 52.7113 12.539 53.0655C12.4573 53.4198 12.539 53.7195 12.7025 53.7468Z" fill="#FFCD9C"/>
<path d="M12.1848 53.665C12.3483 53.6923 12.4573 53.3925 12.5118 53.0383C12.5935 52.684 12.5935 52.4115 12.43 52.3843C12.2665 52.357 12.0758 52.6295 12.0213 52.9838C11.9668 53.3108 12.0213 53.6378 12.1848 53.665Z" fill="#FFCD9C"/>
<path d="M13.2749 52.7658C13.3839 52.6295 13.1386 52.4115 12.8661 52.1935C12.5936 51.9755 12.3483 51.8393 12.2393 51.9483C12.1303 52.0845 12.2938 52.357 12.5664 52.575C12.8661 52.8203 13.1659 52.902 13.2749 52.7658Z" fill="#FFCD9C"/>
<path d="M12.9478 51.1035C12.8115 51.0217 12.5935 51.267 12.4028 51.5667C12.1848 51.8665 12.0758 52.1117 12.2121 52.1935C12.3483 52.2752 12.6208 52.1117 12.8115 51.812C13.0295 51.485 13.084 51.1852 12.9478 51.1035Z" fill="#FFCD9C"/>
<path d="M13.0296 53.883C13.1931 53.9103 13.3021 53.6105 13.3566 53.2563C13.4383 52.902 13.4383 52.6295 13.2748 52.6023C13.1113 52.575 12.9206 52.8475 12.8661 53.2018C12.8116 53.5288 12.8933 53.8558 13.0296 53.883Z" fill="#FFCD9C"/>
<path d="M27.4176 45.6262C27.581 45.7353 27.8263 45.49 28.0443 45.163C28.2623 44.836 28.3713 44.5635 28.235 44.4545C28.0715 44.3455 27.7718 44.509 27.5538 44.836C27.3086 45.163 27.2541 45.5172 27.4176 45.6262Z" fill="#EF8F6F"/>
<path d="M27.7718 45.926C27.9353 46.035 28.1806 45.7898 28.3986 45.4628C28.6166 45.1358 28.7256 44.8633 28.5894 44.7543C28.4258 44.6453 28.1261 44.8088 27.9081 45.1358C27.6356 45.4628 27.6083 45.817 27.7718 45.926Z" fill="#EF8F6F"/>
<path d="M26.7635 45.1085C26.6273 45.2447 27.0633 45.4082 27.3358 45.6535C27.6083 45.8987 27.8535 46.0622 27.9898 45.926C28.126 45.7897 28.0443 45.4627 27.7718 45.2175C27.4993 44.945 26.8998 44.945 26.7635 45.1085Z" fill="#FFC397"/>
<path d="M28.6983 42.4108C28.1533 42.7923 26.0006 44.2093 26.3548 44.836C26.5456 45.163 26.9271 45.6807 27.5538 45.272C28.0443 44.945 28.7528 43.9095 29.1615 42.8195L28.6983 42.4108Z" fill="#FFC397"/>
<path d="M38.3993 15.1608L36.5735 11.046L38.5355 10.9098L38.3993 15.1608Z" fill="#E07599"/>
<path d="M33.031 12.0542L42.9228 12.463L44.6123 0.609253L31.4778 3.71575L33.031 12.0542Z" fill="#E07599"/>
<path d="M11.1765 18.2127L8.724 14.534L10.904 14.1525L11.1765 18.2127Z" fill="#F4D864"/>
<path d="M14.719 14.6975L3.38306 15.9783L0.549072 4.75125L15.918 6.577L14.719 14.6975Z" fill="#F4D864"/>
</svg>
