<svg width="95" height="96" viewBox="0 0 95 96" fill="none" xmlns="http://www.w3.org/2000/svg">
<path d="M50.8658 95.2865C74.795 95.2865 94.1933 95.1157 94.1933 94.905C94.1933 94.6943 74.795 94.5235 50.8658 94.5235C26.9367 94.5235 7.53833 94.6943 7.53833 94.905C7.53833 95.1157 26.9367 95.2865 50.8658 95.2865Z" fill="#5D5D5D"/>
<path d="M43.8081 44.0565C44.6801 39.4785 47.8138 32.8567 53.4818 29.4777L54.8716 35.3092C49.6396 38.4157 47.6231 44.547 46.2061 44.8195C44.9526 45.0375 43.4811 45.7732 43.8081 44.0565Z" fill="#874B3A"/>
<path d="M44.8708 44.0565C45.007 44.0292 48.8765 38.988 49.9393 37.8435C52.6098 35.0368 50.4025 31.14 52.7733 29.9137C53.0185 29.7502 53.2365 29.614 53.4818 29.4505L54.8715 35.282C49.6395 38.3885 47.623 44.5197 46.206 44.7922C45.0343 45.0102 43.6718 45.637 43.7535 44.329C44.1078 44.2745 44.4893 44.1382 44.8708 44.0565Z" fill="#6D372B"/>
<path d="M47.7865 45.2555C47.5685 43.9475 44.5983 41.9582 43.5355 43.7295C41.3555 47.4082 48.1953 47.6807 47.7865 45.2555Z" fill="#AD6453"/>
<path d="M46.1788 44.1382C46.1243 43.8385 45.9608 43.5387 45.6883 43.2117C46.6966 43.5932 47.6776 44.5197 47.7866 45.2555C48.1136 47.163 43.9443 47.4082 43.2358 45.6097C44.6256 45.9367 46.3968 45.3917 46.1788 44.1382Z" fill="#8E483A"/>
<path d="M51.5197 53.6485C48.2497 50.6237 44.571 48.798 44.1895 46.291C43.8897 44.3835 44.5982 43.7022 45.6065 43.784C46.097 43.8385 47.7865 45.637 48.4132 46.836C49.7212 49.343 49.6667 50.6237 51.983 53.4577L51.5197 53.6485Z" fill="#FFC397"/>
<path d="M47.9501 48.1168C47.1871 46.9723 45.3341 45.3645 44.8436 45.3645C44.5711 45.3645 44.3531 45.419 44.1623 45.5553C44.1351 44.1928 44.7891 43.7023 45.6338 43.784C46.1243 43.8385 47.8138 45.637 48.4406 46.836C49.7486 49.343 49.6941 50.6238 52.0103 53.4578L51.5743 53.6213C49.5851 51.523 49.3671 50.2423 47.9501 48.1168Z" fill="#EF8F6F"/>
<path d="M50.675 52.8855C51.1928 53.376 51.6015 55.1745 52.1193 54.902C52.5825 54.6567 52.9368 53.4577 51.0293 52.4767L50.675 52.8855Z" fill="#FFC397"/>
<path d="M51.9012 53.1852C51.0565 53.5667 51.5742 54.7385 51.7922 55.0655C52.0375 55.4198 52.7733 55.338 52.9368 55.0383C53.1003 54.7113 52.2282 53.0217 51.9012 53.1852Z" fill="#FFC397"/>
<path d="M52.6643 54.1935C53.1821 54.3842 53.8633 54.357 53.8633 54.1117C53.8633 53.8392 53.2911 54.0027 52.8551 53.703C52.3646 53.376 52.0648 53.1852 51.9558 53.376C51.8468 53.5667 52.1193 53.9755 52.6643 54.1935Z" fill="#FFC397"/>
<path d="M53.1821 55.3925C53.5363 55.8557 53.8088 56.0192 53.8906 55.9102C53.9996 55.8012 53.7816 55.556 53.4273 55.12C53.0731 54.6567 52.7461 54.03 52.6643 54.1117C52.5553 54.1935 52.8278 54.9292 53.1821 55.3925Z" fill="#FFC397"/>
<path d="M52.6643 55.6922C52.9368 56.21 53.3455 56.5642 53.4818 56.4825C53.5908 56.4007 53.2638 55.992 52.9913 55.4742C52.7188 54.9565 52.528 54.6295 52.419 54.7113C52.2828 54.7658 52.3918 55.1745 52.6643 55.6922Z" fill="#FFC397"/>
<path d="M52.0103 55.5015C52.2828 55.992 52.5553 56.2372 52.6643 56.1555C52.7733 56.0737 52.5281 55.774 52.2556 55.2835C51.9831 54.793 51.7651 54.4388 51.6561 54.4933C51.5471 54.575 51.7106 55.011 52.0103 55.5015Z" fill="#FFC397"/>
<path d="M73.9193 46.2365C73.9466 41.386 72.1753 32.2027 64.5726 29.5595L63.9186 35.0912C69.5866 39.315 68.7963 46.5362 70.3768 47.272C71.7666 47.8987 73.9193 48.471 73.9193 46.2365Z" fill="#874B3A"/>
<path d="M64.5725 29.5323C65.1992 29.7503 65.7442 29.9955 66.2892 30.2953C70.404 31.5488 70.5675 44.4108 72.6657 38.5793C73.5922 41.3588 73.9192 44.1655 73.892 46.2093C73.892 48.4438 71.7392 47.8715 70.3495 47.2175C68.769 46.509 69.5592 39.2605 63.8912 35.0368L64.5725 29.5323Z" fill="#6D372B"/>
<path d="M65.1176 94.2782H63.7823C63.7823 94.2782 63.5643 78.9365 62.2836 73.8407C61.4388 70.4345 60.2398 62.3685 58.8501 62.2322C58.0871 62.1505 54.2721 71.6335 53.8361 73.8407C53.4001 76.048 53.8633 78.9092 53.7271 79.5632C53.5636 80.19 49.0128 91.4442 48.8766 94.6052H47.2416C47.2416 94.6052 50.6751 76.484 50.5661 73.8407C50.4298 71.1975 52.3101 56.9185 52.6098 54.248C52.9913 50.7055 66.6708 51.8772 66.0168 55.6377C65.6898 57.5452 66.9161 63.513 65.6626 73.8407C65.3628 76.375 66.4528 77.4105 66.5618 80.7077C66.4256 81.6342 65.1176 94.2782 65.1176 94.2782Z" fill="#C14C4C"/>
<path d="M65.935 81.3072C65.7987 78.01 64.736 77.356 65.0358 74.8217C66.2893 64.494 64.2455 60.3247 63.8912 59.5072C59.4222 59.1257 54.926 57.9267 52.5007 55.556C55.3075 53.4032 66.6162 52.3132 66.044 55.6377C65.717 57.5452 67.0522 63.513 65.7987 73.8407C65.499 76.375 66.48 77.4105 66.6162 80.7077C66.4527 81.6342 65.1447 94.2782 65.1447 94.2782L64.7633 94.1147C64.9813 91.6895 65.7715 82.0975 65.935 81.3072Z" fill="#A03232"/>
<path d="M52.6915 80.081C52.855 79.4542 52.3918 76.593 52.8005 74.3585C53.2093 72.1512 56.8335 60.897 58.4685 61.987C58.5502 62.0415 58.7682 62.3957 58.85 62.5047C57.869 63.2132 54.4082 71.7152 53.9995 73.8135C53.5635 76.0207 53.8905 78.882 53.727 79.5087C53.5635 80.1355 49.0128 91.3897 48.8765 94.5508H47.8955C48.4405 90.872 52.5552 80.6805 52.6915 80.081Z" fill="#A03232"/>
<path d="M60.7303 61.9052C60.7303 61.9052 58.3867 62.532 56.7245 60.8425C56.7245 60.8425 57.1605 62.3957 58.6865 62.7227C60.1853 63.0225 60.7303 61.9052 60.7303 61.9052Z" fill="#A03232"/>
<path d="M66.2076 58.1447C66.5073 57.518 66.0168 50.5692 66.2348 46.1547C66.6163 38.8245 71.6031 32.121 64.5726 29.505C60.2943 27.9245 54.4901 28.1697 52.6643 30.2407C51.5471 31.4942 52.2828 31.9847 53.2093 42.5032C53.7816 49.1795 51.3836 54.4115 52.4463 55.5287C53.4546 56.5915 65.4446 59.7525 66.2076 58.1447Z" fill="#513329"/>
<path d="M52.5825 35.391C52.3373 34.737 49.6668 28.7965 56.3703 28.6875C51.6015 29.505 51.765 32.339 52.5825 35.391Z" fill="#AA6D44"/>
<path d="M63.8368 29.2597C63.8368 29.2597 61.4661 31.8757 59.7493 34.519L57.4603 28.6057C57.4603 28.6057 61.9293 29.0145 63.8368 29.2597Z" fill="#3F241D"/>
<path d="M62.5016 56.0738L63.8368 54.7113L62.8014 52.3133L61.5479 54.3025L62.5016 56.0738Z" fill="#AA6D44"/>
<path d="M60.3488 55.665L61.6296 54.3025L60.6213 51.959L59.3678 53.9483L60.3488 55.665Z" fill="#AA6D44"/>
<path d="M58.2233 55.2835L59.4768 53.9483L58.4958 51.6048L57.2695 53.5668L58.2233 55.2835Z" fill="#AA6D44"/>
<path d="M56.1523 54.902L57.3786 53.5668L56.4521 51.2778L55.2258 53.1853L56.1523 54.902Z" fill="#AA6D44"/>
<path d="M54.1358 54.5205L55.3348 53.2125L54.4356 50.9235L53.5636 52.6948L54.1358 54.5205Z" fill="#AA6D44"/>
<path d="M62.8559 52.504L64.1639 51.1142L63.1284 48.7708L61.8749 50.7872L62.8559 52.504Z" fill="#AA6D44"/>
<path d="M60.6759 52.1498L61.9567 50.7873L60.9484 48.471L59.7222 50.4603L60.6759 52.1498Z" fill="#AA6D44"/>
<path d="M58.5503 51.7955L59.8311 50.4602L58.8501 48.1712L57.6783 50.1332L58.5503 51.7955Z" fill="#AA6D44"/>
<path d="M56.4794 51.4685L57.7329 50.1333L56.7791 47.8715L55.6346 49.8335L56.4794 51.4685Z" fill="#AA6D44"/>
<path d="M54.4629 51.1143L55.6891 49.8063L54.7626 47.5717L53.8906 49.3157L54.4629 51.1143Z" fill="#AA6D44"/>
<path d="M63.1284 49.2613L64.4364 47.817L63.3736 45.419L62.4471 47.3538L63.1284 49.2613Z" fill="#AA6D44"/>
<path d="M60.9484 48.9342L62.2291 47.5172L61.1664 45.1737L59.9946 47.2175L60.9484 48.9342Z" fill="#AA6D44"/>
<path d="M58.8229 48.6345L60.0491 47.2175L59.0409 44.9012L57.8691 46.9995L58.8229 48.6345Z" fill="#AA6D44"/>
<path d="M56.7247 48.3348L57.951 46.945L56.9427 44.6288L55.8254 46.6998L56.7247 48.3348Z" fill="#AA6D44"/>
<path d="M54.7081 48.035L55.9071 46.6453L54.9261 44.3835L54.1086 46.2093L54.7081 48.035Z" fill="#AA6D44"/>
<path d="M63.4281 45.637L64.7634 44.1655L63.7006 41.7675L62.5562 43.7567L63.4281 45.637Z" fill="#AA6D44"/>
<path d="M61.2482 45.3645L62.6652 43.7295L61.4662 41.5495L60.3217 43.457L61.2482 45.3645Z" fill="#AA6D44"/>
<path d="M59.0954 45.092L60.3761 43.457L59.3134 41.3315L58.1144 43.5115L59.0954 45.092Z" fill="#AA6D44"/>
<path d="M57.0244 44.8195L58.2234 43.4025L57.2424 41.1135L56.0979 43.239L57.0244 44.8195Z" fill="#AA6D44"/>
<path d="M54.9806 44.5743L56.1796 43.1845L55.1986 40.9228L54.3539 42.7758L54.9806 44.5743Z" fill="#AA6D44"/>
<path d="M63.6188 42.2852L64.954 40.8137L63.8368 38.4975L62.9103 40.4595L63.6188 42.2852Z" fill="#AA6D44"/>
<path d="M61.4115 42.0945L62.9375 40.4595L61.5477 38.3612L60.594 40.3777L61.4115 42.0945Z" fill="#AA6D44"/>
<path d="M59.2588 41.9037L60.6213 40.405L59.3406 38.225L58.2778 40.3505L59.2588 41.9037Z" fill="#AA6D44"/>
<path d="M57.1878 41.713L58.3323 40.3233L57.2151 38.0887L56.1796 40.187L57.1878 41.713Z" fill="#AA6D44"/>
<path d="M55.1441 41.5495L56.2341 40.1597L55.1168 37.9525L54.4083 39.8055L55.1441 41.5495Z" fill="#AA6D44"/>
<path d="M63.8913 38.7155L65.281 37.135L64.1365 34.7097L63.0193 36.8897L63.8913 38.7155Z" fill="#AA6D44"/>
<path d="M61.6295 38.552L63.0192 36.8625L61.793 34.628L60.703 36.8625L61.6295 38.552Z" fill="#AA6D44"/>
<path d="M59.4223 38.4157L60.6758 36.8897L59.504 34.5462L58.3323 36.7807L59.4223 38.4157Z" fill="#AA6D44"/>
<path d="M57.2696 38.2795L58.4686 36.7535L57.2969 34.4373L56.2341 36.6718L57.2696 38.2795Z" fill="#AA6D44"/>
<path d="M55.1713 38.1433L56.3158 36.6445L55.1713 34.3555L54.4355 36.3448L55.1713 38.1433Z" fill="#AA6D44"/>
<path d="M63.5643 29.2597C63.5643 29.2597 61.466 31.576 59.7493 34.0012L57.7328 28.6875C57.76 28.6602 61.8203 28.0607 63.5643 29.2597Z" fill="#874B3A"/>
<path d="M62.9921 29.2052C62.9921 29.2052 61.2754 31.1127 59.8583 33.102L58.1961 28.7147C58.1688 28.7147 61.5479 28.2242 62.9921 29.2052Z" fill="#F2A64C"/>
<path d="M64.9813 56.6188C65.281 55.992 64.845 51.7683 65.063 47.381C65.3628 41.4405 67.352 37.6528 68.3058 35.1185C68.006 38.1705 66.3983 43.2118 66.2348 46.1548C66.0168 50.542 66.48 57.518 66.2075 58.1448C65.4445 59.7525 53.4545 56.6188 52.4463 55.5288C54.6263 55.8285 63.864 58.9623 64.9813 56.6188Z" fill="#42261F"/>
<path d="M69.8863 49.3703C70.8673 50.2968 74.3281 50.0515 74.0556 47.9533C73.4561 43.5932 68.0878 47.6535 69.8863 49.3703Z" fill="#AD6453"/>
<path d="M72.4205 46.836C72.366 46.509 72.3115 46.2365 72.2025 46.0185C73.0472 45.964 73.8375 46.4545 74.0555 47.9532C74.3552 50.0515 70.8672 50.2968 69.8862 49.3703C69.6955 49.1795 69.5865 48.9888 69.532 48.7435C70.8945 48.8798 72.6112 48.3348 72.4205 46.836Z" fill="#8E483A"/>
<path d="M62.9375 29.069L63.4552 23.619L59.0135 23.2375L58.0325 28.633C58.0325 28.633 61.0845 30.8675 62.9375 29.069Z" fill="#EF8F6F"/>
<path d="M66.7798 57.5725C69.5593 54.3025 72.9655 52.1497 72.9383 49.67C72.911 47.7625 72.0663 47.163 71.0853 47.3265C70.5675 47.4082 69.205 49.343 68.769 50.5965C67.8698 53.1852 68.1423 54.4387 66.3165 57.4362L66.7798 57.5725Z" fill="#FFC397"/>
<path d="M71.8755 50.3785C71.8755 49.016 70.9217 48.5255 70.295 48.58C69.968 48.6072 69.1778 49.6427 69.4775 49.1522C70.0498 48.2257 70.731 47.4082 71.058 47.3537C72.0662 47.1902 73.1562 47.708 73.1835 49.6155C73.2107 52.0952 69.5593 54.3297 66.7798 57.5997L66.4528 57.518C69.096 55.2017 71.8755 52.286 71.8755 50.3785Z" fill="#EF8F6F"/>
<path d="M43.6991 94.6597H49.1763C49.1763 94.6597 48.3316 92.6705 47.7048 92.8885C46.9146 93.1337 43.6991 94.6597 43.6991 94.6597Z" fill="#FFE0BB"/>
<path d="M62.3926 94.6597H65.7443C65.7443 94.6597 64.8996 92.6705 64.2728 92.8885C63.4826 93.1337 62.3926 94.6597 62.3926 94.6597Z" fill="#FFE0BB"/>
<path d="M63.0193 78.9092C63.1011 77.7102 63.3736 76.4567 63.2101 75.6937C63.0738 74.9307 61.8203 71.688 61.8203 71.688L63.0193 78.9092Z" fill="#A03232"/>
<path d="M57.8963 58.0085L59.2861 58.2265L59.1771 58.9895L57.8146 58.7715L57.8963 58.0085Z" fill="#DB6A6A"/>
<path d="M68.006 37.2985C68.1695 36.6445 69.4775 32.1482 66.1803 30.1862C67.8698 32.0392 68.2785 33.9195 68.006 37.2985Z" fill="#AA6D44"/>
<path opacity="0.5" d="M60.8665 33.429C57.2967 33.211 55.3347 30.05 55.1985 28.9055C56.0432 28.6875 57.0515 28.5512 58.087 28.4967L58.8772 24.1095C59.286 23.8097 59.6947 23.5645 60.1307 23.3465L63.4825 23.6462L62.992 28.96C63.1282 29.0145 63.2645 29.069 63.3735 29.1235C63.537 29.178 63.6732 29.2052 63.8095 29.2597C63.8367 29.2597 63.8367 29.2597 63.864 29.2597C64.1092 29.3415 64.3545 29.4232 64.5997 29.505C64.8177 29.5867 65.0357 29.6685 65.2265 29.7502C65.3082 29.7775 65.39 29.8047 65.4717 29.832C65.499 29.8592 65.5535 29.8592 65.5808 29.8865C65.7988 29.9682 66.044 30.0772 66.262 30.1862C66.262 30.159 66.2347 30.159 66.2347 30.1317C66.2893 30.159 66.3438 30.1862 66.3983 30.2407C66.698 30.377 66.9705 30.5405 67.2702 30.704C66.6435 32.121 63.101 33.5652 60.8665 33.429Z" fill="#843C2D"/>
<path d="M68.2512 55.774C67.6517 56.3735 67.2702 57.8722 66.698 57.5997C66.1802 57.3545 65.7987 56.2917 67.8697 55.5015L68.2512 55.774Z" fill="#FFC397"/>
<path d="M66.916 56.101C67.8425 56.4825 67.2975 57.4907 67.0523 57.7632C66.7798 58.063 65.9895 57.954 65.7988 57.6815C65.608 57.409 66.5618 55.9647 66.916 56.101Z" fill="#FFC397"/>
<path d="M66.0986 56.973C65.5263 57.1365 64.7633 57.0547 64.7633 56.864C64.7633 56.646 65.3901 56.7822 65.8533 56.537C66.3711 56.2645 66.7253 56.101 66.8616 56.2917C66.9978 56.4552 66.6708 56.8095 66.0986 56.973Z" fill="#FFC397"/>
<path d="M65.5535 58.0085C65.172 58.39 64.8995 58.5262 64.7905 58.4445C64.6815 58.3627 64.8995 58.1447 65.281 57.7632C65.6625 57.3817 66.0168 56.8095 66.1258 56.8912C66.2075 56.973 65.9078 57.627 65.5535 58.0085Z" fill="#FFC397"/>
<path d="M66.1257 58.3082C65.8532 58.7442 65.3627 59.044 65.2537 58.9895C65.1175 58.935 65.499 58.5535 65.7715 58.1175C66.044 57.6815 66.262 57.3817 66.3982 57.4635C66.5072 57.4907 66.3982 57.845 66.1257 58.3082Z" fill="#FFC397"/>
<path d="M66.8342 58.1719C66.5345 58.6079 66.262 58.7987 66.1257 58.7442C66.0167 58.6624 66.262 58.4172 66.5617 57.9812C66.8615 57.5452 67.0795 57.2454 67.2157 57.2999C67.3247 57.3544 67.134 57.7359 66.8342 58.1719Z" fill="#FFC397"/>
<path d="M57.2696 16.0707C57.4603 14.354 55.4983 12.937 58.4958 12.7462C61.5206 12.5555 63.0466 13.155 63.6188 14.0815C63.6188 14.0815 66.3166 14.2995 66.2348 16.5885C66.1803 18.4415 65.1993 22.42 62.5016 24.818C59.8038 27.216 57.2696 16.0707 57.2696 16.0707Z" fill="#B75A44"/>
<path d="M60.1036 16.316C62.1201 16.1252 63.8368 15.444 64.9541 14.463C65.6353 14.79 66.2894 15.4167 66.2621 16.5885C66.2076 18.4415 65.2266 22.42 62.5288 24.818C59.9946 27.0797 57.5966 17.3787 57.3241 16.1797C58.1688 16.3432 59.0953 16.3977 60.1036 16.316Z" fill="#9B402F"/>
<path d="M62.9103 18.3053C62.9103 18.3053 63.8913 24.709 62.5833 25.7445C61.2753 26.8073 57.4058 28.2788 57.1605 27.7065C56.0706 25.0905 55.5528 20.9485 55.9616 19.259C56.0706 18.7413 55.4166 18.3598 55.4983 17.9238C56.0433 15.0353 58.087 13.373 60.1308 13.8635C62.4743 14.4358 62.7468 16.0435 62.9103 18.3053Z" fill="#FFC397"/>
<path d="M61.8203 25.5265C63.1283 24.4637 62.1473 18.0872 62.1473 18.0872C62.0111 16.0435 61.7658 14.5447 60.0218 13.8635C60.0763 13.8635 60.1036 13.8635 60.1581 13.8907C62.5016 14.463 62.7741 16.0435 62.9376 18.3052C62.9376 18.3052 63.9186 24.709 62.6106 25.7445C61.5206 26.6165 58.6321 27.8155 57.5966 27.8427C58.8501 27.4067 60.9211 26.2622 61.8203 25.5265Z" fill="#F7A27C"/>
<path d="M63.7552 19.6677C63.1557 20.0765 62.0384 21.0302 62.4199 23.074H61.6024C61.6024 23.074 60.9757 16.0435 62.7742 15.9072C64.5727 15.7437 63.7552 19.6677 63.7552 19.6677Z" fill="#9B402F"/>
<path d="M62.4198 21.439C62.4743 20.5942 63.6188 19.1227 64.4363 20.0765C65.5535 21.4662 62.0656 25.9352 62.4198 21.439Z" fill="#FFC397"/>
<path d="M62.8286 21.657C62.8558 21.1665 63.5098 20.3218 63.9731 20.8668C64.6271 21.657 62.6106 24.2185 62.8286 21.657Z" fill="#EF8F6F"/>
<path d="M62.7741 22.4472C62.8013 22.1747 63.1556 21.7387 63.4008 22.0385C63.7551 22.4472 62.6651 23.837 62.7741 22.4472Z" fill="#FFC397"/>
<path d="M61.5479 14.3813C61.5479 14.3813 63.2919 16.3433 62.7741 18.278C62.7741 18.278 64.5181 16.0708 63.4009 14.572C62.3109 13.0733 61.5479 14.3813 61.5479 14.3813Z" fill="#B75A44"/>
<path d="M55.9071 19.2317C55.6618 21.1392 55.9071 23.292 56.3158 24.8725C57.3786 23.7007 57.0788 22.6107 56.9426 21.2482C56.7791 19.5042 57.3513 17.8965 55.6618 18.0872C55.5801 18.0872 55.5256 18.1417 55.4438 18.1962C55.5528 18.5505 55.9616 18.7412 55.9071 19.2317Z" fill="#F7A27C"/>
<path d="M55.4711 18.496C55.2259 18.5505 54.9534 18.0055 55.4166 17.842C55.8254 17.6785 56.5066 17.5695 56.5339 17.6785C56.5611 17.733 56.6973 17.951 56.4521 18.169C56.2886 18.278 55.9889 18.4143 55.4711 18.496Z" fill="#B75A44"/>
<path d="M57.0789 18.0872C57.1334 18.3052 57.6511 19.9947 58.8774 20.0492C60.1036 20.0765 58.6866 18.1417 58.6866 18.1417L57.0789 18.0872Z" fill="#F7A27C"/>
<path d="M58.7956 19.5315C58.7139 19.1772 58.4959 18.9047 58.3324 18.932C58.1689 18.9592 58.1144 19.2862 58.1961 19.6405C58.2779 19.9947 58.4959 20.2672 58.6594 20.24C58.8229 20.2127 58.8774 19.8857 58.7956 19.5315Z" fill="#723C2E"/>
<path d="M56.6974 19.6677C56.6429 19.3135 56.4521 19.0137 56.2614 19.041C56.0979 19.0682 55.9889 19.368 56.0706 19.7223C56.1251 20.0765 56.3159 20.3763 56.5066 20.349C56.6702 20.349 56.7519 20.022 56.6974 19.6677Z" fill="#723C2E"/>
<path d="M58.6321 18.2508C58.9318 18.2508 59.0953 17.7058 58.5503 17.5968C58.0598 17.515 57.2968 17.4878 57.2696 17.5695C57.2696 17.624 57.1606 17.8693 57.4603 18.0328C57.6783 18.169 58.0326 18.2508 58.6321 18.2508Z" fill="#B75A44"/>
<path d="M58.4414 23.8643C58.4959 24.1095 58.7684 25.2268 57.8147 25.4175C56.6702 25.6628 56.5612 24.1368 56.5612 24.1368L58.4414 23.8643Z" fill="#4F2119"/>
<path d="M58.2506 25.581C58.2234 25.4992 58.0326 25.6627 57.7601 25.69C57.4876 25.7445 57.2696 25.6627 57.2969 25.7445C57.3241 25.8262 57.5694 25.9625 57.8146 25.908C58.0871 25.8807 58.2779 25.6627 58.2506 25.581Z" fill="#EF8F6F"/>
<path d="M56.6702 24.164L56.8609 24.6817L58.3597 24.491L58.3324 23.8915L56.6702 24.164Z" fill="#FFEFE3"/>
<path d="M56.8336 18.605C56.8336 18.605 55.7981 23.401 55.9344 23.5917C56.0979 23.7825 58.3869 23.4282 58.4414 23.2647C58.4686 23.1285 57.2151 19.0682 56.8336 18.605Z" fill="#FFC397"/>
<path d="M24.7876 63.8673C24.6241 63.9218 24.5151 63.6493 24.4333 63.295C24.3516 62.968 24.3516 62.6955 24.5151 62.641C24.6786 62.5865 24.8693 62.8045 24.9511 63.1588C25.0328 63.4858 24.9511 63.8128 24.7876 63.8673Z" fill="#EF8F6F"/>
<path d="M24.4061 64.058C24.2426 64.1125 24.1336 63.84 24.0519 63.4858C23.9701 63.1587 23.9701 62.8862 24.1336 62.8317C24.2971 62.7772 24.4879 62.9952 24.5696 63.3495C24.6786 63.6765 24.5969 64.0035 24.4061 64.058Z" fill="#EF8F6F"/>
<path d="M25.4962 63.5675C25.5779 63.731 25.1419 63.7582 24.8422 63.9217C24.5424 64.0852 24.2971 64.167 24.2154 64.0035C24.1336 63.84 24.3244 63.5675 24.6241 63.4312C24.9511 63.2405 25.4417 63.404 25.4962 63.5675Z" fill="#FFC397"/>
<path d="M24.8149 60.7062C25.1146 61.1967 26.4226 62.968 25.9321 63.4312C25.6869 63.6765 25.1964 64.0307 24.8149 63.513C24.5151 63.1042 24.2971 62.0142 24.2971 60.9515L24.8149 60.7062Z" fill="#FFC397"/>
<path d="M22.7439 59.9432L23.4251 61.442L25.4689 60.8425L25.1691 59.044L22.7439 59.9432Z" fill="#F9CE8A"/>
<path d="M25.7141 59.48C25.7141 59.0167 23.5069 50.324 23.6159 49.6972C24.0246 47.5172 22.0626 45.8005 21.1361 46.1275C18.2476 47.1357 20.2369 58.3627 22.0626 60.7607C23.9429 60.5427 25.7141 59.48 25.7141 59.48Z" fill="#664938"/>
<path d="M23.4797 50.5965C23.8339 50.1605 28.6027 37.353 27.2402 34.628C25.8777 31.903 19.6374 46.5907 19.7464 49.343C21.4087 51.4957 23.4797 50.5965 23.4797 50.5965Z" fill="#664938"/>
<path d="M49.1492 44.4925C48.8222 44.329 44.4077 40.6775 40.7562 38.1432C38.5762 36.6445 37.5952 34.3555 37.4862 33.3472C37.1047 30.4587 50.2664 39.4512 51.6017 42.476C51.4382 44.983 49.1492 44.4925 49.1492 44.4925Z" fill="#664938"/>
<path d="M36.1237 32.3935L33.0989 32.121L30.8099 32.3118L30.7281 33.3745L36.5597 33.1837L36.1237 32.3935Z" fill="#543729"/>
<path d="M34.7339 26.3712L30.8372 26.671L31.0279 33.429L35.4969 33.4017L34.7339 26.3712Z" fill="#EF8F6F"/>
<path d="M49.2309 42.04C46.8601 42.258 46.2879 40.0507 42.5001 37.68C38.2491 35.0095 37.3771 32.5025 37.4861 33.3745C37.6224 34.3827 38.5216 36.8625 40.7016 38.3612C44.3531 40.8955 48.3316 43.9475 48.6586 44.0837L49.2309 42.04Z" fill="#543729"/>
<path d="M27.3219 66.783C29.3111 67.437 38.1946 67.219 42.0096 64.5758C42.0096 64.5758 39.1211 57.409 37.5951 57.3273C30.4011 56.9458 27.3219 66.783 27.3219 66.783Z" fill="#3F2B22"/>
<path d="M31.0006 94.6597C30.4556 89.7547 29.7471 89.0462 29.3656 84.4137C29.2294 82.7515 30.0469 80.2172 29.8834 78.446C29.2294 70.4345 28.0304 61.7417 28.1394 57.1365C28.2211 54.139 39.7479 52.5312 41.1922 56.0737C41.8189 57.5997 41.2194 88.2832 41.3557 94.6597H40.6199C40.6199 94.6597 39.2302 89.346 38.3037 84.114C38.0039 82.4245 38.7396 80.3807 38.4671 78.5822C37.3771 71.4427 36.6959 62.8317 35.1699 62.6955C33.9709 62.5865 32.8809 70.8977 32.4176 78.5822C32.3086 80.517 32.6357 82.5607 32.5812 84.4137C32.3904 90.109 31.9816 94.6597 31.9816 94.6597H31.0006Z" fill="#A0513C"/>
<path d="M39.1212 83.9505C38.8214 82.261 39.5572 80.2172 39.2847 78.4187C38.1947 71.2792 37.5134 62.6682 35.9874 62.532C35.8239 62.532 35.5242 62.6137 35.3879 62.859C36.6687 64.167 37.4862 71.9877 38.5217 78.5822C38.7942 80.3807 38.0584 82.4245 38.3582 84.114C39.2847 89.346 40.6744 94.6597 40.6744 94.6597H41.4102C41.4102 94.5235 41.4102 94.4145 41.4102 94.251C41.0832 93.161 39.9387 88.5285 39.1212 83.9505Z" fill="#873829"/>
<path d="M31.7909 94.4963C31.2459 89.5913 30.5374 88.8828 30.1559 84.2502C30.0196 82.588 30.8371 80.19 30.7009 78.446C30.0469 70.4345 30.4011 66.0745 30.5101 61.442C32.3359 60.352 35.8239 58.7715 41.4919 59.4527C41.9824 57.191 28.1939 55.8012 28.1666 57.1092C28.0576 61.7145 29.2294 70.4072 29.9106 78.4187C30.0469 80.1627 29.2566 82.7242 29.3929 84.3865C29.7744 89.019 30.5101 89.7548 31.0279 94.6325H31.9816C31.9816 94.6325 31.9816 94.578 32.0089 94.469H31.7909V94.4963Z" fill="#873829"/>
<path opacity="0.5" d="M41.4919 65.2297C41.4919 62.6682 41.4646 60.461 41.4101 58.826L38.3036 57.3C37.9221 60.9787 39.7751 63.9762 41.4919 65.2297Z" fill="#A0513C"/>
<path opacity="0.5" d="M33.2079 58.935C33.2079 58.935 29.7471 59.2892 28.1666 59.5072C28.2756 61.769 28.5209 64.5757 28.8206 67.6005C30.8644 65.8292 33.2079 62.4775 33.2079 58.935Z" fill="#A0513C"/>
<path d="M28.3574 60.3792C27.9759 60.5427 27.8396 60.134 27.8941 59.589C28.3574 54.7657 24.2426 39.1242 25.8776 35.2547C26.6951 33.32 34.4341 31.467 38.3854 33.429C40.4564 34.4645 39.9659 41.0862 40.6471 46.5362C41.2194 51.2232 42.0914 54.1117 41.8734 58.3627C41.8461 58.9077 41.7371 59.4255 41.2466 59.2347C38.3854 58.2265 32.2541 58.6897 28.3574 60.3792Z" fill="#F9CE8A"/>
<path d="M33.4531 58.608C33.4531 58.608 36.2598 57.9812 38.5216 58.281L38.4671 58.7442C38.4671 58.7442 33.8074 58.826 32.7719 59.153L33.4531 58.608Z" fill="#E0AA5A"/>
<path d="M40.7561 40.4322C36.2871 39.5602 27.8396 41.3042 26.5588 41.8765L27.1038 43.1572C32.2813 41.495 40.8378 41.8765 40.8378 41.8765L40.7561 40.4322Z" fill="#FFE69F"/>
<path d="M30.3467 32.9657L33.4532 34.2737L35.9602 32.6932L33.3987 32.557L30.3467 32.9657Z" fill="#FFE69F"/>
<path d="M33.7529 58.935C33.7256 58.0085 31.6819 44.329 31.6819 44.329L32.1451 59.2347L33.7529 58.935Z" fill="#E0AA5A"/>
<path d="M37.7041 58.6897C38.5488 51.4685 36.0691 32.7477 36.0691 32.7477L38.1128 33.1837L40.3473 58.935L37.7041 58.6897Z" fill="#E0AA5A"/>
<path d="M37.4589 43.239L37.3226 32.8567L35.5514 32.666C35.5514 32.6387 36.9684 42.367 37.4589 43.239Z" fill="#E0AA5A"/>
<path d="M27.3219 66.783C29.7199 66.3742 32.8264 62.641 32.9899 58.717C33.0989 56.21 31.2732 33.647 30.6737 32.7477C30.6737 32.7477 26.4499 33.4017 25.6597 35.5817C25.2782 36.59 24.9512 40.6502 26.0139 47.6807C26.9404 53.9482 27.3219 66.783 27.3219 66.783Z" fill="#664938"/>
<path d="M31.9817 44.547L28.7117 33.2655L30.4284 32.7205C30.4284 32.7477 32.0907 42.4487 31.9817 44.547Z" fill="#543729"/>
<path d="M30.7554 32.7477C30.7554 32.7477 30.6737 32.7477 30.5374 32.775C31.1914 34.5462 32.9082 56.1827 32.8264 58.6352C32.6902 62.423 29.8017 66.02 27.4309 66.6467C27.4309 66.7285 27.4309 66.7557 27.4309 66.7557C29.8289 66.347 32.9354 62.6137 33.0989 58.6897C33.1807 56.21 31.3549 33.6197 30.7554 32.7477Z" fill="#B7856C"/>
<path d="M25.8776 47.8987C26.2591 50.3785 26.8314 55.992 26.8314 55.992C27.1856 54.03 27.1584 52.177 26.7224 47.9805C26.2864 43.9202 25.7959 42.8847 25.4416 41.059C25.4144 43.1027 25.3326 44.2745 25.8776 47.8987Z" fill="#543729"/>
<path d="M42.0096 64.5758C40.1566 64.1398 39.2846 60.7608 39.0666 59.3165C38.7123 57.1093 39.0121 52.3678 38.2218 45.0375C37.5406 38.6065 36.8866 33.7288 36.1781 32.6115C36.1781 32.6115 38.3581 32.3663 39.5026 34.4373C40.0203 35.3638 40.6198 39.642 41.4918 46.727C42.4183 54.1935 42.0096 64.5758 42.0096 64.5758Z" fill="#664938"/>
<path d="M42.0914 60.1885C42.2821 52.7492 41.7371 48.3892 41.5464 46.5907C40.7834 39.533 40.4291 36.6717 39.9114 35.7452C40.2384 39.2877 42.0641 60.134 42.0914 60.1885Z" fill="#543729"/>
<path d="M39.1756 59.3165C38.8214 57.1092 39.1211 52.3677 38.3309 45.0375C37.6496 38.6065 36.9956 33.7287 36.2871 32.6115C36.2871 32.6115 36.3416 32.6115 36.4234 32.6115C36.2599 32.6115 36.1509 32.6115 36.1509 32.6115C36.8594 33.7287 37.4044 38.6882 38.0856 45.1192C38.8759 52.4495 38.6579 57.1092 39.0121 59.3165C39.2301 60.7607 40.1021 64.1397 41.9551 64.5757C41.9551 64.5757 41.9551 64.5485 41.9551 64.5212C40.2384 63.949 39.3936 60.7335 39.1756 59.3165Z" fill="#B7856C"/>
<path d="M38.0584 42.9665L37.9221 32.5842L36.1509 32.3935C36.1236 32.3935 37.5679 42.1217 38.0584 42.9665Z" fill="#B7856C"/>
<path d="M44.1624 94.8232H40.3202C40.3202 94.8232 40.4837 93.3245 41.2467 93.5425C42.2549 93.815 44.1624 94.8232 44.1624 94.8232Z" fill="#C6B38B"/>
<path d="M33.2625 94.8232H29.8562C29.8562 94.8232 30.919 93.3245 31.682 93.5425C32.663 93.815 33.2625 94.8232 33.2625 94.8232Z" fill="#C6B38B"/>
<path d="M32.0634 43.5387L29.0114 32.8567L30.8099 32.3117C30.8099 32.3117 32.1724 41.4132 32.0634 43.5387Z" fill="#B7856C"/>
<path d="M33.4803 61.9325C34.0798 62.1232 36.0691 62.5047 37.8403 61.5782C37.8403 61.5782 36.9138 62.8862 35.3606 62.9407C33.8073 62.968 33.4803 61.9325 33.4803 61.9325Z" fill="#873829"/>
<path d="M36.4234 59.0167L35.0882 59.1257L35.0609 59.698L36.4234 59.6162V59.0167Z" fill="#C65C47"/>
<path d="M26.7769 55.1745L29.5564 53.6212C29.5564 53.6212 29.9106 54.902 29.5836 55.229C29.2566 55.556 26.9404 57.191 26.8859 56.8095C26.8314 56.3462 26.7769 55.1745 26.7769 55.1745Z" fill="#543729"/>
<path d="M26.5862 54.9837L29.4747 53.485C29.4747 53.485 29.7472 54.7112 29.4202 55.0382C29.0932 55.338 26.6679 56.9185 26.6407 56.5642C26.5862 56.101 26.5862 54.9837 26.5862 54.9837Z" fill="#8E634D"/>
<path d="M42.0914 54.466L39.3937 53.158C39.3937 53.158 39.1212 54.466 39.4209 54.7657C39.7479 55.0655 41.9824 56.4825 42.0369 56.101C42.0914 55.6377 42.0914 54.466 42.0914 54.466Z" fill="#543729"/>
<path d="M42.2549 54.248L39.4754 52.9945C39.4754 52.9945 39.2574 54.248 39.5844 54.5205C39.9114 54.793 42.2549 56.1555 42.2821 55.8012C42.3094 55.3652 42.2549 54.248 42.2549 54.248Z" fill="#8E634D"/>
<path d="M31.0006 32.884L33.3986 33.7287L35.4151 32.6387L33.3714 32.339L31.0006 32.884Z" fill="#EF8F6F"/>
<path d="M25.5779 39.9962L25.5234 35.6635L25.2236 35.9632C25.2236 35.9905 25.4416 39.6965 25.5779 39.9962Z" fill="#8E634D"/>
<path d="M27.6761 42.8575L30.3194 41.931L30.4284 42.7485L27.7034 43.2935L27.6761 42.8575Z" fill="#8E634D"/>
<path d="M63.5644 55.447C63.7006 55.3652 63.8914 55.5832 64.0821 55.883C64.2729 56.1555 64.3819 56.4007 64.2729 56.4825C64.1366 56.5642 63.8914 56.4007 63.7006 56.1282C63.4826 55.8285 63.4281 55.5287 63.5644 55.447Z" fill="#FFCD9C"/>
<path opacity="0.5" d="M38.6034 32.884C38.3854 32.8295 38.1402 32.775 37.9222 32.7205C37.9222 32.666 37.9222 32.6387 37.8949 32.557C37.2954 32.448 36.1237 32.3662 36.1237 32.3662L35.3607 32.3117L34.8702 27.7065C34.1617 27.1887 33.4259 26.7527 32.6902 26.5075L30.8099 26.6437L30.9734 32.2845L30.7827 32.3117L28.9842 32.8567L29.0659 33.1292C28.2484 33.3745 27.2947 33.7832 26.5862 34.3555C29.1204 36.154 37.1864 34.8732 38.6034 32.884Z" fill="#A0513C"/>
<path d="M35.1153 19.5315C35.5241 19.15 37.3771 17.842 37.4861 15.6892C37.4861 15.6892 38.3581 18.0872 35.0063 20.24L35.1153 19.5315Z" fill="#915329"/>
<path d="M35.1971 19.1772C35.5241 18.714 37.1319 17.1335 36.8866 15.008C36.8866 15.008 38.1674 17.2152 35.2244 19.913L35.1971 19.1772Z" fill="#915329"/>
<path d="M36.2872 15.0625C35.3062 13.4002 30.6737 13.8362 28.3302 14.79C23.5887 16.7247 26.2864 18.7957 26.2864 18.7957C25.1419 20.1037 25.3054 21.7115 26.0412 23.292C27.2129 25.799 30.0469 27.4885 30.8917 28.1697L34.5704 20.567C35.4969 20.1037 37.2954 16.7247 36.2872 15.0625Z" fill="#915329"/>
<path d="M32.8264 16.8882C29.9106 16.8882 27.3764 18.4142 25.5506 17.2697C25.4961 18.169 26.3137 18.7957 26.3137 18.7957C25.1691 20.1037 25.3326 21.7115 26.0684 23.292C27.2401 25.799 30.0741 27.4885 30.9189 28.1697L34.5977 20.567C34.9792 20.3762 35.4969 19.7222 35.9057 18.8775C34.9247 19.041 33.8347 16.8882 32.8264 16.8882Z" fill="#7C3F21"/>
<path d="M35.1699 17.9782C35.6877 18.4687 37.9222 21.5752 37.1047 22.3382C36.5597 22.8287 37.6497 24.7635 37.4862 26.0442C37.2682 27.7065 36.7504 30.2952 36.0692 31.0855C31.6547 30.704 30.1832 26.7255 30.4284 25.2267C30.6737 23.7552 28.1394 20.676 28.9842 19.1227C30.3739 16.6702 33.3169 16.207 35.1699 17.9782Z" fill="#FFC397"/>
<path d="M37.5133 21.7115C36.3688 21.8477 35.6331 21.0847 35.7148 23.0195C35.7693 24.6272 34.8156 27.7882 37.0773 28.3332C37.4316 27.0797 37.7858 25.6355 36.9956 22.7742C36.8593 22.2837 37.5133 22.0657 37.5133 21.7115Z" fill="#F7A27C"/>
<path d="M36.7776 23.4555C36.8048 23.074 36.6413 22.747 36.4233 22.747C36.2053 22.747 36.0146 23.074 35.9873 23.4555C35.9601 23.837 36.1236 24.164 36.3416 24.164C36.5596 24.164 36.7776 23.837 36.7776 23.4555Z" fill="#543C32"/>
<path d="M35.5515 22.0657C35.6605 23.6462 37.2682 27.107 37.0775 27.3795C36.8867 27.652 34.7885 27.1615 34.7885 27.1615C34.7885 27.1615 35.5242 21.3845 35.5515 22.0657Z" fill="#FFC397"/>
<path d="M36.3416 21.8477C36.1236 21.8477 36.0146 21.2755 36.3416 21.1392C36.6686 21.0302 37.6224 21.2482 37.6769 21.3845C37.7041 21.4662 37.8676 21.7932 37.5406 21.984C37.3499 22.093 37.1319 21.8477 36.3416 21.8477Z" fill="#915329"/>
<path d="M33.6711 24.382C34.1616 24.6 35.3061 22.3383 35.1154 21.9568C34.9246 21.5753 33.6166 22.093 33.4259 22.3927C33.2624 22.6925 33.1534 24.164 33.6711 24.382Z" fill="#F7A27C"/>
<path d="M34.8156 22.0112C35.1426 21.9567 35.3606 21.221 34.9246 21.1665C34.4614 21.112 33.0716 21.657 32.9626 21.8477C32.8809 21.9567 32.6356 22.3927 33.0716 22.529C33.3169 22.6107 33.6711 22.2292 34.8156 22.0112Z" fill="#915329"/>
<path d="M33.6711 27.2978L33.8346 27.2433C34.0799 28.4422 35.7694 28.6602 36.9684 28.306L36.9956 28.3877C36.0691 28.7147 34.0254 28.9872 33.6711 27.2978Z" fill="#C46951"/>
<path d="M34.7067 28.9055C34.7067 28.9055 35.3607 29.178 36.2054 28.96C35.5787 29.4232 35.1154 29.3415 34.7067 28.9055Z" fill="#EF8F6F"/>
<path d="M33.1807 27.434C33.1807 27.434 33.6984 27.434 34.2162 27.0525C33.9164 27.543 33.5622 27.6247 33.1807 27.434Z" fill="#C46951"/>
<path d="M33.9436 23.619C33.9709 23.2375 33.8074 22.9105 33.5894 22.9105C33.3714 22.9105 33.1806 23.2375 33.1534 23.619C33.1261 24.0005 33.2896 24.3275 33.5076 24.3275C33.7256 24.3275 33.9164 24.0005 33.9436 23.619Z" fill="#543C32"/>
<path d="M31.4639 25.3085C31.2186 24.0005 29.5564 20.131 29.6926 18.1962C29.4474 18.4687 29.2021 18.7685 29.0114 19.1227C28.1394 20.676 30.7009 23.7552 30.4556 25.2267C30.2104 26.6982 31.6546 30.6767 36.0964 31.0855C36.1236 31.0582 36.1509 31.031 36.1781 31.0037C32.4721 30.1862 31.7636 27.0252 31.4639 25.3085Z" fill="#F7A27C"/>
<path d="M30.9189 26.3985L31.7091 26.2622C31.7091 26.2622 30.5374 18.06 28.7116 18.4687C26.9131 18.8775 28.6844 22.2837 28.6844 22.2837L30.9189 26.3985Z" fill="#7C3F21"/>
<path d="M31.1914 26.562C31.1369 25.9625 30.1559 24.6 29.5292 24.2457C28.8207 23.837 28.1939 24.0277 27.9759 24.5455C27.7034 25.1995 28.9569 26.453 29.8834 26.6982C30.4012 26.8345 31.2459 27.2432 31.1914 26.562Z" fill="#FFC397"/>
<path d="M30.6191 26.2078C30.5919 25.8535 29.9924 25.036 29.6109 24.818C29.1749 24.5728 28.7934 24.6818 28.6844 25.0088C28.5209 25.3903 29.2839 26.1805 29.8289 26.3168C30.1286 26.3985 30.6464 26.6438 30.6191 26.2078Z" fill="#EF8F6F"/>
<path d="M30.8917 26.5075C30.8917 26.2895 30.6192 25.799 30.4012 25.69C30.1559 25.581 29.9379 25.6627 29.8562 25.8807C29.7472 26.1532 30.1287 26.562 30.4284 26.6165C30.6192 26.6437 30.8917 26.7527 30.8917 26.5075Z" fill="#FFC397"/>
<path d="M29.1204 18.4142C28.8206 18.7957 28.9024 19.6132 29.0114 20.0492C29.0114 20.0492 27.2129 18.932 25.9321 19.8857C25.9321 19.8585 26.4771 18.278 29.1204 18.4142Z" fill="#915329"/>
<path d="M25.142 45.201C24.1065 47.817 23.1255 49.9425 22.6895 50.978C22.9892 52.831 24.4607 58.6897 24.706 59.9977C25.3055 59.7252 25.7142 59.48 25.7142 59.48C25.7142 59.0712 24.1882 52.286 23.8612 50.2422C24.3245 49.1795 24.9512 47.4082 25.6597 44.765C25.8232 44.0565 25.4962 44.3017 25.142 45.201Z" fill="#543729"/>
<path d="M41.4375 54.5477C41.5737 54.6839 41.7917 54.4659 42.0097 54.1934C42.2277 53.9209 42.364 53.6757 42.2277 53.5667C42.0915 53.4304 41.819 53.5667 41.601 53.8392C41.383 54.0844 41.3012 54.4114 41.4375 54.5477Z" fill="#EF8F6F"/>
<path d="M41.6827 54.8747C41.8189 55.011 42.037 54.793 42.255 54.5205C42.473 54.248 42.6092 54.0027 42.4729 53.8937C42.3367 53.7575 42.0642 53.8937 41.8462 54.1662C41.6282 54.4115 41.5464 54.7385 41.6827 54.8747Z" fill="#EF8F6F"/>
<path d="M40.8924 53.9482C40.7562 54.0572 41.1377 54.2752 41.3284 54.5477C41.5464 54.8202 41.7372 55.011 41.8734 54.902C42.0097 54.793 41.9552 54.466 41.7372 54.1935C41.5737 53.8937 41.0559 53.8392 40.8924 53.9482Z" fill="#FFC397"/>
<path d="M42.8272 51.6865C42.3367 51.9862 40.3201 52.9945 40.5654 53.6485C40.7016 53.9755 40.9741 54.5205 41.5737 54.2207C42.0369 54.0027 42.7454 53.1035 43.2087 52.1497L42.8272 51.6865Z" fill="#FFC397"/>
<path d="M42.3911 52.4222L42.6364 52.1769L43.0724 52.5584L42.8816 52.9399L42.3911 52.4222Z" fill="#756150"/>
<path d="M41.9279 52.4495C41.8189 52.2587 41.9279 51.9862 42.1459 51.85C42.3639 51.7137 42.6364 51.741 42.7454 51.9317C42.8544 52.1225 42.7454 52.395 42.5274 52.5312C42.2821 52.6675 42.0369 52.6402 41.9279 52.4495Z" fill="#473A2E"/>
<path d="M41.9824 52.395C41.9006 52.2315 41.9824 52.0135 42.1459 51.9044C42.3366 51.7954 42.5274 51.8227 42.6364 51.9589C42.7181 52.1224 42.6364 52.3132 42.4729 52.4495C42.2821 52.5585 42.0914 52.5312 41.9824 52.395Z" fill="#756150"/>
<path d="M42.037 52.395C41.9552 52.2587 42.037 52.068 42.2004 51.959C42.3639 51.8499 42.5547 51.8772 42.6364 52.0135C42.7182 52.1497 42.6364 52.3405 42.4729 52.4495C42.3094 52.5585 42.1187 52.5312 42.037 52.395Z" fill="#AD937F"/>
<path d="M42.2549 52.2042C42.2549 52.177 42.2549 52.1497 42.2821 52.1225C42.3094 52.0952 42.3366 52.1225 42.3639 52.1225C42.3639 52.1497 42.3639 52.177 42.3366 52.2042C42.3094 52.2315 42.2821 52.2315 42.2549 52.2042Z" fill="#473A2E"/>
<path d="M43.2358 49.9969L42.1731 51.2777L43.5901 52.8582L45.0888 51.7955L43.2358 49.9969Z" fill="#F9CE8A"/>
<path d="M42.1731 50.1605C42.3911 49.779 47.2143 44.4652 47.7048 43.7567C48.9038 42.04 50.7023 41.3042 51.2746 41.9855C53.1003 44.22 46.9146 51.3322 44.9253 53.0762C43.3993 51.9317 42.1731 50.1605 42.1731 50.1605Z" fill="#664938"/>
<path d="M47.7049 44.3562C48.2226 43.5387 48.6314 42.8302 49.0401 42.2852C48.5496 42.6122 48.0591 43.0755 47.6504 43.675C47.1599 44.3835 42.2276 49.67 42.0096 50.0515C42.0096 50.0515 42.2821 50.3785 42.7181 50.869C43.2359 50.0787 47.2416 45.0375 47.7049 44.3562Z" fill="#543729"/>
<path d="M44.9524 51.1361C45.1743 51.0944 45.318 50.8688 45.2735 50.6321C45.229 50.3954 45.0131 50.2374 44.7913 50.2791C44.5694 50.3209 44.4256 50.5465 44.4701 50.7832C44.5146 51.0198 44.7305 51.1779 44.9524 51.1361Z" fill="#543729"/>
<path d="M44.9113 50.9238C45.0888 50.8903 45.2033 50.7073 45.167 50.515C45.1307 50.3228 44.9574 50.1941 44.78 50.2276C44.6025 50.261 44.488 50.444 44.5243 50.6363C44.5606 50.8286 44.7338 50.9573 44.9113 50.9238Z" fill="#B7856C"/>
<path d="M71.9573 41.9309C70.7311 43.4569 67.9516 48.1439 65.7171 45.4462C63.4826 42.7484 68.6328 31.249 72.0118 29.396C75.3908 27.5702 74.3281 38.9607 71.9573 41.9309Z" fill="#F2A64C"/>
<path d="M72.9655 29.2597C73.1835 32.5297 71.3305 33.2382 70.0497 35.1185C68.878 36.808 67.2975 44.22 65.1992 42.9665C65.1447 44.0292 65.281 44.9012 65.717 45.4462C67.9515 48.144 70.8127 43.8385 72.039 42.3125C74.1645 39.6692 75.1727 29.9955 72.9655 29.2597Z" fill="#DD7F3A"/>
<path d="M85.3643 81.7704C85.3098 80.1354 83.5386 76.7564 83.4568 75.5847C83.1026 69.5352 81.2496 62.0142 82.0671 53.5939C77.0531 54.0572 70.9491 54.7112 70.5948 56.6732C69.8591 62.1777 71.1671 71.8242 71.8211 74.9579C72.7476 79.3724 74.1646 90.1362 74.0828 94.5507H75.0093C74.8458 93.1609 76.1538 84.3864 75.9358 81.4434C75.7723 79.3452 74.8731 76.0479 74.8731 75.4212C74.8731 74.7944 75.2818 63.1042 76.1266 63.1042C76.8896 63.1042 79.3966 72.3147 80.9771 75.5029C81.5221 76.5929 81.1951 79.3724 81.6856 81.9339C82.1761 84.4954 85.5823 94.5507 85.5823 94.5507H86.4816C85.5823 90.5994 85.3916 82.6424 85.3643 81.7704Z" fill="#404F66"/>
<path d="M79.6418 58.4717C80.0506 63.513 82.2578 69.6715 82.6393 75.721C82.7211 76.92 84.4923 80.299 84.5468 81.9067C84.5741 82.7787 84.7648 90.5177 85.6368 94.5235H86.4816C85.5823 90.5722 85.3916 82.6152 85.3643 81.7432C85.3098 80.1082 83.5386 76.7292 83.4568 75.5575C83.1026 69.508 81.6311 60.8697 82.4486 52.4222L70.8128 53.9482C70.7311 54.4387 70.8946 55.6922 70.6221 56.646C71.7393 57.6815 76.0176 58.717 79.6418 58.4717Z" fill="#2D3A4C"/>
<path d="M74.873 75.4212C74.873 74.9035 75.1455 66.4015 75.7723 63.84C75.5815 63.4857 75.4453 63.2677 75.309 63.2677C74.4643 63.2677 74.0283 74.958 74.0555 75.5847C74.0555 76.2115 74.9548 79.5087 75.1183 81.607C75.3363 84.4682 74.11 92.7795 74.1918 94.578H75.0093C74.8458 93.1882 76.1538 84.4137 75.9358 81.4707C75.7723 79.3452 74.873 76.0207 74.873 75.4212Z" fill="#2D3A4C"/>
<path d="M70.8128 55.774C70.2133 52.4767 67.5701 32.9657 72.3116 29.1507C77.0531 25.3357 85.6913 28.9327 87.0266 31.9302C87.8441 33.756 88.2528 38.4157 84.6286 46.2637C83.2661 49.234 82.7483 54.466 82.2851 56.2372C80.8136 57.6815 71.0036 56.9185 70.8128 55.774Z" fill="#F2A64C"/>
<path d="M81.1406 29.5322C81.4948 28.851 80.4321 28.0607 78.7426 27.7882C77.0531 27.5157 75.3636 27.8427 75.0093 28.5239C74.6551 29.2052 75.7178 29.9955 77.4073 30.268C79.0968 30.5405 80.7591 30.2135 81.1406 29.5322Z" fill="#FFB9AE"/>
<path d="M86.4271 33.6742C86.1001 32.9385 83.1843 35.3637 81.849 43.457C81.304 46.6997 81.1405 53.2397 80.6773 55.011C79.6145 56.0737 74.4098 56.5915 71.712 56.3462C74.1918 57.1365 81.086 57.4635 82.285 56.2645C82.7483 54.5205 83.266 49.2612 84.6285 46.291C88.2256 38.4157 87.2173 35.5 86.4271 33.6742Z" fill="#DD7F3A"/>
<path d="M83.6476 40.9227C84.7376 42.3669 87.0811 46.1274 89.8606 44.2472C92.6401 42.3942 88.9886 32.3934 85.6641 30.3769C82.3123 28.3877 81.5493 38.1432 83.6476 40.9227Z" fill="#F2A64C"/>
<path d="M90.3238 38.334C90.6508 40.3505 90.4601 42.0127 89.5063 42.7212C86.3453 44.983 84.3561 41.2497 83.2661 39.8055C83.0208 39.4785 82.7756 38.4157 82.6121 37.9252C82.7756 39.1515 83.0753 40.5685 83.5931 41.2497C84.6831 42.694 86.6178 46.6725 89.9151 44.4925C91.1686 43.6205 91.1141 41.059 90.3238 38.334Z" fill="#DD7F3A"/>
<path d="M86.1546 38.988C88.2801 38.1977 91.7408 43.348 91.7408 43.348C91.7408 43.348 89.9968 44.3562 88.9068 43.893C88.9068 43.893 88.0621 45.7732 87.2991 46.0457C86.1546 44.7105 84.0291 39.8055 86.1546 38.988Z" fill="#FFD176"/>
<path d="M65.6898 40.7592C67.7608 40.4049 69.9135 46.1547 69.9135 46.1547C69.9135 46.1547 68.1423 46.7814 67.243 46.1274C67.243 46.1274 66.1258 47.7897 65.39 47.9259C64.5725 46.3727 63.6188 41.1134 65.6898 40.7592Z" fill="#FFD176"/>
<path d="M59.9401 33.538C61.7931 36.045 68.6873 40.4867 68.6328 45.1465C68.6328 45.8822 67.5156 46.727 66.2076 46.5362C65.3901 46.4 63.7006 44.5742 63.0193 43.0755C61.6568 40.0235 60.9211 35.6362 59.3406 33.756L59.9401 33.538Z" fill="#FFC397"/>
<path d="M67.1068 45.746C66.262 45.6642 64.4908 43.9202 63.755 42.476C62.2835 39.642 61.3298 35.5272 59.7765 33.6197L59.3678 33.7832C60.9483 35.6635 61.7113 40.0507 63.0465 43.1027C63.7005 44.6015 65.39 46.4272 66.2348 46.5635C67.352 46.7542 68.3603 46.1275 68.6055 45.4735C68.1695 45.6642 67.6518 45.8005 67.1068 45.746Z" fill="#F7A27C"/>
<path d="M60.5124 34.2192C60.2944 33.974 60.0764 33.7287 59.9129 33.538L59.7766 33.5925C60.0219 33.7832 60.2671 34.0012 60.5124 34.2192Z" fill="#EF8F6F"/>
<path d="M67.4612 41.5767C67.7882 42.2852 68.0062 43.0482 68.0334 43.784C68.0607 44.5197 66.9707 45.419 65.6899 45.2827C65.0359 45.201 63.8642 44.1382 62.9922 42.9937C62.9922 43.021 63.0194 43.0482 63.0194 43.0755C63.6734 44.5742 65.3629 46.4 66.2077 46.5362C67.4884 46.7542 68.6057 45.9095 68.6329 45.1465C68.6329 43.9202 68.1697 42.7485 67.4612 41.5767Z" fill="#EF8F6F"/>
<path d="M80.2412 29.3415L79.3965 21.33L76.3717 22.9922L75.745 29.069C75.7722 29.069 78.2792 30.7312 80.2412 29.3415Z" fill="#EF8F6F"/>
<path d="M79.4238 24.491C81.5493 22.202 85.0373 18.4415 82.9118 16.0162C82.9118 16.0162 83.7021 14.3812 82.6121 13.809C81.5221 13.2367 80.9771 14.354 80.9771 14.354C80.9771 14.354 81.6311 11.956 80.2686 11.411C78.9061 10.866 78.3066 11.738 78.3066 11.738C78.3066 11.738 76.9986 10.0212 75.5816 10.8932C75.0366 11.2202 74.5733 11.956 74.5733 11.956C74.5733 11.956 73.2926 11.1385 72.6658 11.847C72.0391 12.5555 73.8921 15.662 73.8921 15.662L79.4238 24.491Z" fill="#B25A3B"/>
<path d="M82.9118 16.0162C82.9118 16.0162 83.7021 14.3812 82.6121 13.809C81.5221 13.2367 80.9771 14.354 80.9771 14.354C80.9771 14.354 81.3858 12.8552 80.8681 11.956C80.8681 12.0377 80.8681 12.1467 80.8681 12.2285C80.8681 15.335 77.5436 17.0517 74.4916 17.2697L79.4238 24.4637C81.5493 22.202 85.0373 18.4415 82.9118 16.0162Z" fill="#843720"/>
<path opacity="0.5" d="M80.1051 32.23C82.7756 32.5842 85.2281 32.23 86.8358 31.4125C86.5906 31.14 86.3726 30.922 86.1273 30.7312C84.8466 29.4777 82.5576 28.306 80.0778 27.7882L79.3966 21.33L76.3718 22.9922L75.9086 27.6247C74.8731 27.7882 73.8648 28.1425 72.9656 28.6875C73.9738 30.3497 76.7261 31.794 80.1051 32.23Z" fill="#A0513C"/>
<path d="M80.1868 18.4959C80.1868 18.4959 80.0506 22.9649 79.6418 24.0549C79.0151 25.6627 76.1811 27.2159 73.8103 27.2977C73.0201 24.6817 72.4751 20.7304 73.0746 19.0954C73.2653 18.5777 72.6386 18.1689 72.7748 17.7602C73.6741 14.9262 75.9358 13.4002 77.9251 13.9724C80.1868 14.6809 80.2958 16.2342 80.1868 18.4959Z" fill="#FFC397"/>
<path d="M75.0911 17.8692C75.0911 18.0055 75.3908 19.0682 75.8813 19.0955C76.3718 19.1227 77.7616 19.0137 76.7261 18.1145C75.6633 17.2152 75.0911 17.8692 75.0911 17.8692Z" fill="#F7A27C"/>
<path d="M74.4916 21.0847C74.5461 19.2045 74.5733 17.188 72.9383 17.8147C72.8566 17.842 72.8021 17.8692 72.7476 17.9237C72.7476 17.9237 72.7476 17.951 72.7748 17.9782C73.2108 18.714 72.2026 21.766 73.2381 24.5727C74.0011 24.5727 74.4098 22.965 74.4916 21.0847Z" fill="#F7A27C"/>
<path d="M72.5023 17.5694C72.8837 17.5422 73.6195 17.4877 74.001 17.4059L74.0827 17.9237C74.0827 17.9237 72.7747 18.0599 72.6112 18.0327C72.4477 18.0054 72.5023 17.5694 72.5023 17.5694Z" fill="#A85436"/>
<path d="M76.7261 17.733C76.3446 17.6512 75.6088 17.4877 75.2273 17.3515L75.0638 17.8692C75.0638 17.8692 76.3446 18.1962 76.5353 18.1962C76.7261 18.1962 76.7261 17.733 76.7261 17.733Z" fill="#A85436"/>
<path d="M75.527 18.9047C75.5543 18.5232 75.7178 18.2234 75.9358 18.2234C76.1538 18.2234 76.29 18.5504 76.29 18.9319C76.2628 19.3134 76.0993 19.6132 75.8813 19.6132C75.6633 19.6132 75.4998 19.2862 75.527 18.9047Z" fill="#543C32"/>
<path d="M75.9904 23.401C75.8269 23.074 74.4916 23.2102 73.9739 23.074C73.5651 22.965 74.2464 25.1995 74.9004 25.1995C75.5544 25.1995 76.0721 23.5917 75.9904 23.401Z" fill="#4F2119"/>
<path d="M75.8541 23.4282L75.6088 23.946L74.1918 23.8642C74.1918 23.8642 73.9466 23.1284 74.1373 23.2102C74.5461 23.3737 75.2001 23.1284 75.8541 23.4282Z" fill="#FFF2DE"/>
<path d="M73.8103 23.0467C73.8376 22.9922 73.8921 22.9377 73.9738 22.965C74.0556 22.965 74.0828 23.0194 74.0828 23.1012C74.0556 23.1557 74.0011 23.2102 73.9193 23.1829C73.8376 23.1829 73.7831 23.1284 73.8103 23.0467Z" fill="#4F2119"/>
<path d="M75.8814 23.3737C75.9086 23.3192 75.9631 23.2647 76.0449 23.2919C76.1266 23.2919 76.1539 23.3464 76.1539 23.4282C76.1266 23.4827 76.0721 23.5372 75.9904 23.51C75.9086 23.51 75.8541 23.4555 75.8814 23.3737Z" fill="#4F2119"/>
<path d="M73.238 19.0955C73.238 18.714 73.4288 18.387 73.6195 18.4142C73.8375 18.4142 74.001 18.7412 73.9738 19.1227C73.9738 19.5042 73.783 19.8312 73.5923 19.804C73.4015 19.804 73.238 19.477 73.238 19.0955Z" fill="#543C32"/>
<path d="M72.5023 22.638C72.8293 22.1202 74.1646 18.6867 74.3826 17.842C74.5461 17.2152 74.7641 22.8015 74.7641 22.8015C74.7641 22.8015 72.2843 23.0195 72.5023 22.638Z" fill="#FFC397"/>
<path d="M77.8978 13.9997C77.1621 13.7817 76.3991 13.8634 75.6906 14.1632C75.8541 14.1904 75.9903 14.2177 76.1538 14.2449C78.4428 14.9262 78.5518 16.4794 78.4428 18.7412C78.4428 18.7412 78.3066 23.2102 77.8978 24.3002C77.4346 25.5264 75.6633 26.7254 73.8103 27.2432V27.2705C76.1811 27.1615 79.0151 25.6354 79.6418 24.0277C80.0506 22.9377 80.1868 18.4687 80.1868 18.4687C80.2958 16.2342 80.1868 14.6809 77.8978 13.9997Z" fill="#F7A27C"/>
<path d="M79.3965 20.9485C79.8598 20.2672 80.7863 19.9675 81.1405 20.5942C81.4948 21.221 80.1323 23.3192 79.5055 23.074C78.8788 22.8287 79.124 21.33 79.3965 20.9485Z" fill="#FFC397"/>
<path d="M79.7236 21.2209C79.9961 20.8122 80.5411 20.6487 80.7318 21.0302C80.9226 21.3844 80.1323 22.6107 79.7781 22.4744C79.4511 22.3382 79.5873 21.4389 79.7236 21.2209Z" fill="#EF8F6F"/>
<path d="M79.6418 21.9022C79.8325 21.657 80.1596 21.548 80.2958 21.766C80.4321 21.984 79.9143 22.7742 79.6963 22.6925C79.451 22.6107 79.5328 22.0385 79.6418 21.9022Z" fill="#FFC397"/>
<path d="M78.7698 22.1475H79.6418C79.6418 22.1475 79.669 20.2944 80.759 19.8312L80.4593 14.6809C80.432 14.6809 77.5436 15.0352 78.7698 22.1475Z" fill="#843720"/>
<path d="M77.9796 34.4099C80.6501 36.0449 88.7161 37.5437 90.4056 41.8764C90.6781 42.5577 89.9696 43.7839 88.6889 44.0564C87.8714 44.2472 85.6369 43.1027 84.4651 41.9854C82.0671 39.6692 79.6964 35.9904 77.5164 34.8187L77.9796 34.4099Z" fill="#FFC397"/>
<path d="M89.0975 41.1952C89.3428 41.7947 88.716 42.8302 87.5988 43.1027C86.8903 43.2662 84.9283 42.3397 83.92 41.3587C83.1025 40.5684 83.375 41.0589 84.4105 42.0672C85.5823 43.1844 87.844 44.2472 88.6615 44.0564C89.9423 43.7567 90.6508 42.5577 90.3783 41.8764C89.8605 40.5139 88.6888 39.4512 87.299 38.5519C85.882 37.6527 88.2255 38.9607 89.0975 41.1952Z" fill="#EF8F6F"/>
<path d="M75.1456 94.7959H71.3033C71.3033 94.7959 73.5106 93.5697 74.4643 93.5697C75.2546 93.5697 75.1456 94.7959 75.1456 94.7959Z" fill="#DDC99E"/>
<path d="M88.2256 94.7959H84.9283C84.9283 94.7959 84.9283 93.8694 85.9093 93.6787C86.9176 93.4607 88.2256 94.7959 88.2256 94.7959Z" fill="#DDC99E"/>
<path d="M75.8268 37.1077L72.1481 41.4132L75.0638 45.4734L78.4428 41.8219L75.8268 37.1077ZM73.3198 41.3587L75.6088 38.7154L77.2166 41.6312L75.1183 43.8929L73.3198 41.3587Z" fill="#FFD176"/>
<path d="M74.9275 40.2142L75.527 39.4784L75.963 40.2687L75.3907 40.8682L74.9275 40.2142Z" fill="#FFD176"/>
<path d="M74.7096 42.5577L75.3091 41.8492L75.7451 42.6394L75.1728 43.2389L74.7096 42.5577Z" fill="#FFD176"/>
<path d="M73.8921 41.386L74.4916 40.6502L74.9276 41.4405L74.3826 42.04L73.8921 41.386Z" fill="#FFD176"/>
<path d="M75.7723 41.4949L76.3991 40.7864L76.8351 41.5494L76.2628 42.1762L75.7723 41.4949Z" fill="#FFD176"/>
<path d="M74.764 41.4132L75.3635 40.7047L75.7995 41.4949L75.2273 42.0944L74.764 41.4132Z" fill="#FFD176"/>
<path d="M75.6088 36.4537L75.9358 36.0449L76.181 36.4809L75.8813 36.8352L75.6088 36.4537Z" fill="#FFD176"/>
<path d="M78.7971 41.9037L79.1514 41.4949L79.3966 41.9309L79.0696 42.2852L78.7971 41.9037Z" fill="#FFD176"/>
<path d="M79.3693 41.3587L79.6963 40.9772L79.9143 41.3859L79.6145 41.7129L79.3693 41.3587Z" fill="#FFD176"/>
<path d="M79.2603 42.4214L79.5873 42.0399L79.8053 42.4487L79.5055 42.7757L79.2603 42.4214Z" fill="#FFD176"/>
<path d="M71.385 41.3314L71.712 40.9499L71.9573 41.3859L71.6575 41.7129L71.385 41.3314Z" fill="#FFD176"/>
<path d="M70.9491 40.7319L71.2761 40.3232L71.5213 40.7592L71.2216 41.0862L70.9491 40.7319Z" fill="#FFD176"/>
<path d="M70.8673 41.8492L71.1943 41.4404L71.4396 41.8764L71.1398 42.2307L70.8673 41.8492Z" fill="#FFD176"/>
<path d="M74.7096 46.2365L75.0638 45.8277L75.2818 46.2637L74.9821 46.618L74.7096 46.2365Z" fill="#FFD176"/>
<path d="M75.3091 46.9722L75.6361 46.5634L75.8813 46.9994L75.5816 47.3537L75.3091 46.9722Z" fill="#FFD176"/>
<path d="M74.0283 46.9177L74.3826 46.5362L74.6278 46.9722L74.3008 47.2992L74.0283 46.9177Z" fill="#FFD176"/>
<path d="M76.3173 35.8814L76.6443 35.4727L76.8895 35.9087L76.5625 36.2629L76.3173 35.8814Z" fill="#FFD176"/>
<path d="M75.0365 35.8542L75.3908 35.4454L75.636 35.8814L75.309 36.2357L75.0365 35.8542Z" fill="#FFD176"/>
<path d="M73.8375 62.8045C74.4098 63.0225 76.5625 63.295 77.925 62.3685C77.925 62.3685 77.4345 63.8127 75.9358 63.8945C74.4098 63.949 73.8375 62.8045 73.8375 62.8045Z" fill="#2D3A4C"/>
<path d="M75.854 57.6814L74.5732 57.5179V58.1992L75.854 58.3354V57.6814Z" fill="#6F829E"/>
<path d="M70.8945 54.1662C71.1398 54.466 73.5105 56.4552 77.3528 55.5287C74.764 55.3652 73.1563 55.12 70.8945 54.1662Z" fill="#DD7F3A"/>
<path d="M80.7215 16.4937C81.0275 16.62 81.485 16.2148 81.7433 15.5888C82.0016 14.9628 81.9629 14.3529 81.6568 14.2266C81.3508 14.1003 80.8933 14.5055 80.635 15.1315C80.3767 15.7575 80.4154 16.3674 80.7215 16.4937Z" fill="#B25A3B"/>
<path d="M77.6044 15.3313C78.8793 15.4361 79.9448 15.132 79.9842 14.6521C80.0237 14.1721 79.0222 13.6981 77.7473 13.5932C76.4725 13.4884 75.407 13.7925 75.3675 14.2724C75.328 14.7524 76.3295 15.2265 77.6044 15.3313Z" fill="#B25A3B"/>
<path d="M60.7303 35.3909C60.2125 34.8459 58.3868 34.6279 58.6593 34.0284C58.9045 33.4834 60.1035 32.9657 61.1118 34.9822L60.7303 35.3909Z" fill="#FFC397"/>
<path d="M60.4033 34.0557C60.0218 35.0367 58.85 34.6007 58.523 34.3827C58.1415 34.1374 58.2505 33.3199 58.5503 33.1019C58.8228 32.8839 60.5668 33.6742 60.4033 34.0557Z" fill="#FFC397"/>
<path d="M59.3678 33.32C59.1498 32.7477 59.177 31.9847 59.4223 31.9575C59.6948 31.9302 59.5313 32.5842 59.8583 33.0475C60.2125 33.538 60.376 33.865 60.1853 34.0285C60.0218 34.1647 59.5858 33.8922 59.3678 33.32Z" fill="#FFC397"/>
<path d="M58.1688 32.884C57.7056 32.557 57.5421 32.2572 57.6238 32.1482C57.7056 32.0392 57.9781 32.23 58.4413 32.557C58.9046 32.884 59.5586 33.1837 59.4768 33.2927C59.3678 33.4562 58.6321 33.211 58.1688 32.884Z" fill="#FFC397"/>
<path d="M57.8691 33.5107C57.3513 33.2654 56.997 32.8294 57.0515 32.6932C57.1333 32.5569 57.5421 32.8839 58.0871 33.1292C58.6048 33.3744 58.9318 33.5379 58.8773 33.6742C58.7956 33.8104 58.3868 33.7287 57.8691 33.5107Z" fill="#FFC397"/>
<path d="M58.0598 34.2192C57.542 33.974 57.324 33.7015 57.3785 33.5652C57.4603 33.429 57.76 33.6742 58.2778 33.9195C58.7955 34.1647 59.1498 34.3555 59.068 34.4917C58.9863 34.628 58.5775 34.4645 58.0598 34.2192Z" fill="#FFC397"/>
<path d="M78.797 35.6907C78.2793 35.173 76.5625 35.064 76.7805 34.4372C76.9712 33.8649 78.0613 33.2654 79.1513 35.2275L78.797 35.6907Z" fill="#FFC397"/>
<path d="M78.4156 34.3554C78.1158 35.3909 76.9986 35.0094 76.6716 34.8187C76.3173 34.6007 76.3446 33.7559 76.6171 33.5107C76.8351 33.2927 78.5246 33.9739 78.4156 34.3554Z" fill="#FFC397"/>
<path d="M77.38 33.7014C77.1347 33.1292 77.1347 32.3662 77.3527 32.3117C77.598 32.2572 77.489 32.9385 77.816 33.3744C78.1703 33.8649 78.361 34.1919 78.1975 34.3554C78.034 34.5189 77.6252 34.2464 77.38 33.7014Z" fill="#FFC397"/>
<path d="M76.2083 33.3199C75.745 33.0202 75.5815 32.7477 75.6633 32.6114C75.745 32.4752 75.9903 32.6659 76.4535 32.9929C76.9168 33.2927 77.5435 33.5652 77.4618 33.6742C77.38 33.8104 76.6715 33.6469 76.2083 33.3199Z" fill="#FFC397"/>
<path d="M75.963 33.974C75.4453 33.7832 75.091 33.3472 75.1455 33.211C75.2 33.0747 75.636 33.3745 76.1265 33.5925C76.6443 33.7832 76.944 33.9467 76.8895 34.083C76.8623 34.2192 76.4808 34.1647 75.963 33.974Z" fill="#FFC397"/>
<path d="M76.2083 34.6825C75.7178 34.4645 75.4725 34.192 75.527 34.0557C75.5815 33.9195 75.8812 34.1375 76.399 34.3555C76.8895 34.5735 77.2437 34.737 77.1892 34.8732C77.1075 35.0367 76.6988 34.9005 76.2083 34.6825Z" fill="#FFC397"/>
<path d="M17.5936 93.8422C18.6836 89.7547 18.3838 82.2882 19.3376 79.6722C20.1006 77.5195 21.3541 77.356 21.7901 75.6937C22.9346 71.2792 15.8768 62.641 17.2666 53.1852C17.8661 49.0705 21.4631 48.035 23.0708 54.03C23.8066 56.7005 25.9593 66.8102 25.6323 73.2957C25.4143 77.5195 20.5911 82.697 18.8198 94.0602L17.5936 93.8422Z" fill="#7F4654"/>
<path d="M19.3376 79.6722C18.4111 82.2882 18.6836 89.7547 17.5936 93.8422L18.0841 93.924C19.2559 89.8092 19.4194 82.7787 20.4549 80.299C21.3541 78.1735 22.3079 77.8737 22.8256 76.2387C23.6704 73.5955 21.0271 69.6442 19.2286 64.0307C18.9289 63.077 17.8661 63.295 18.3021 64.5212C19.9916 69.2082 22.2806 73.105 21.6266 75.6392C21.1906 77.3015 20.1006 77.5195 19.3376 79.6722Z" fill="#6B3444"/>
<path d="M17.5663 94.796H21.5175C21.5175 94.796 19.065 93.1064 18.4383 93.4062C17.8388 93.7059 17.5663 94.796 17.5663 94.796Z" fill="#CCB483"/>
<path d="M24.188 48.6072C20.3458 45.9912 16.2855 38.0887 16.776 33.2927C16.9668 31.4397 19.2558 30.268 21.2723 32.6387C22.7438 34.3555 24.624 38.3612 25.06 39.4512C25.932 41.5767 26.8313 44.3562 26.8585 46.836C26.7495 47.8987 24.7603 48.9887 24.188 48.6072Z" fill="#91C9C3"/>
<path opacity="0.7" d="M20.7818 32.5025C20.7818 32.5025 16.9123 31.6032 16.7488 33.2927C16.2583 38.0887 20.3186 45.9912 24.1608 48.6072C24.733 48.9887 26.7495 47.8987 26.8313 46.8087C26.8313 46.6725 26.477 46.1275 26.477 45.9912C23.0708 42.7212 22.4168 34.0012 20.7818 32.5025Z" fill="#6EAFA5"/>
<path d="M22.4986 48.4982C22.1444 48.1712 22.0899 46.6725 23.1526 45.855C24.5151 44.7922 26.6406 45.0375 27.2129 45.3917C27.7579 45.746 26.1501 50.2695 24.8966 50.2695C23.8066 50.2695 23.9701 48.5527 23.9701 48.5527C23.9701 48.5527 23.1254 49.0705 22.4986 48.4982Z" fill="#F9CE8A"/>
<path d="M25.9866 47.4627C24.6513 47.4627 23.5068 46.8087 23.0981 45.8822C22.0626 46.727 22.1171 48.1712 22.4986 48.4982C23.1253 49.0705 23.9701 48.5527 23.9701 48.5527C23.9701 48.5527 23.7793 50.2695 24.8966 50.2695C25.6323 50.2695 26.5043 48.689 26.9676 47.3265C26.6406 47.4082 26.3136 47.4627 25.9866 47.4627Z" fill="#F2BA70"/>
<path d="M38.3853 51.0052C35.2788 50.433 27.1583 51.8772 24.0518 48.4165C23.5613 47.8715 23.8065 46.4817 24.8965 45.746C25.605 45.2827 28.0848 45.4735 29.6108 46.1002C32.69 47.4082 36.2325 50.106 38.685 50.4057L38.3853 51.0052Z" fill="#FFC397"/>
<path d="M25.2509 48.144C24.8149 47.6807 25.0329 46.4817 25.9866 45.855C26.3954 45.5825 27.4581 45.5825 28.5209 45.746C27.1039 45.419 25.4689 45.3645 24.9239 45.7187C23.8339 46.4545 23.5886 47.817 24.0791 48.3892C27.2129 51.85 35.3334 50.4057 38.4126 50.978L38.5216 50.76C35.3334 50.4602 27.7579 50.9235 25.2509 48.144Z" fill="#EF8F6F"/>
<path d="M15.7678 94.5235C15.5771 91.526 14.0238 86.4575 13.3698 82.697C13.0428 80.7077 13.7241 78.0645 13.9966 75.6392C14.2963 72.9142 10.1816 64.3577 12.3616 54.3025C13.1791 50.542 17.1031 49.3702 18.7381 54.4387C19.4466 56.5915 19.0923 58.6625 18.5746 62.423C18.4928 63.077 17.6753 70.7342 16.8033 75.503C15.6316 81.7705 17.1576 94.033 17.1576 94.033L15.7678 94.5235Z" fill="#7F4654"/>
<path d="M12.1708 60.025C13.5878 60.1885 20.9998 58.1992 23.2616 56.0737L22.9891 54.793L12.0073 57.7632L12.1708 60.025Z" fill="#6B3444"/>
<path d="M13.9693 83.024C13.6423 81.0347 14.6778 78.4187 14.9503 75.9662C15.2501 73.2412 13.5333 65.148 15.6861 55.0655C16.1766 52.8037 15.1138 51.0052 16.7488 51.414C14.9231 50.2422 12.7158 51.523 12.1436 54.1662C9.96358 64.2487 14.0783 72.9142 13.7786 75.6392C13.5061 78.0645 12.8248 80.6805 13.1518 82.6425C13.8058 86.4302 15.5226 91.526 15.7406 94.4962L16.4763 94.2237C16.1221 91.2262 14.5688 86.5392 13.9693 83.024Z" fill="#6B3444"/>
<path d="M12.1981 58.4717C11.3533 58.3627 11.4896 58.0085 11.4896 57.5997C11.2716 44.6015 4.29555 41.2225 6.0668 36.59C7.83805 31.903 17.0213 29.0145 20.482 31.8757C22.2533 33.3472 22.8256 41.3042 22.771 46.2092C22.7438 50.0242 23.3706 53.376 23.1798 55.774C21.8173 56.755 15.2228 58.9077 12.1981 58.4717Z" fill="#91C9C3"/>
<path d="M20.5911 42.04C20.9181 41.822 21.5448 41.5495 21.9536 40.5957C22.3623 39.6965 22.4168 38.2795 22.3351 37.3257C22.3351 37.3257 22.6076 40.3777 22.6076 41.1952C22.0353 42.1217 20.5911 42.04 20.5911 42.04Z" fill="#72AFA6"/>
<path d="M20.6728 42.0672C19.9915 42.2035 21.79 41.1135 22.0898 39.9417C22.3895 38.8245 22.1715 37.2167 21.899 36.154C21.899 36.154 23.2343 39.4512 22.7983 40.4322C22.3078 41.5495 20.6728 42.0672 20.6728 42.0672Z" fill="#91C9C3"/>
<path d="M10.9174 32.0665L13.6969 34.8732L14.7869 32.5297L16.9396 33.7832L16.8306 30.8947L14.7596 32.0937L11.2171 31.7667L10.9174 32.0665Z" fill="#6EAFA5"/>
<path d="M9.66382 43.6205L22.7983 39.0152C22.7438 38.443 22.5803 37.9525 22.4713 37.462C19.6918 38.2795 12.6886 40.5957 10.0453 41.5495L9.66382 43.6205Z" fill="#A2DDD4"/>
<path d="M8.95532 45.746L22.6076 40.732C23.0708 40.296 22.8801 39.8327 22.8528 39.5875C20.1823 40.3777 11.2988 43.7567 8.60107 44.765L8.95532 45.746Z" fill="#A2DDD4"/>
<path opacity="0.7" d="M14.2691 57.1092C16.3946 56.5915 19.7463 55.3107 21.5993 54.9837C21.5993 54.9837 17.3756 54.466 16.4218 54.575C12.1708 55.12 14.8413 53.6757 11.6803 45.0647C13.1518 45.8822 15.7406 44.7377 15.7406 44.7377C14.0783 45.0375 12.5523 44.438 11.7893 43.4297C10.8901 42.258 10.8901 40.187 10.6176 38.8517C10.6176 38.8517 10.2361 40.405 10.4268 42.2035C8.57383 38.6337 6.47558 36.7535 6.33933 37.0805C4.56808 41.7402 11.4078 44.656 11.4896 57.954C11.4896 58.1175 11.5986 58.281 11.7621 58.3355C13.9421 59.1257 20.5911 57.1365 22.7438 56.0192C20.2913 56.8367 16.4491 57.4362 14.2691 57.1092Z" fill="#6EAFA5"/>
<path d="M2.27907 50.4875C1.48882 45.9095 5.76707 34.4917 8.87357 33.5652C11.9801 32.6387 11.3533 40.4595 9.71832 44.5197C8.87357 46.6452 7.21132 49.4247 5.44007 51.1415C4.59532 51.85 2.41532 51.1687 2.27907 50.4875Z" fill="#91C9C3"/>
<path opacity="0.7" d="M9.93632 43.0482C9.14607 44.983 7.83807 47.2992 6.20307 48.8797C6.03957 48.4982 5.60357 47.5717 5.03132 47.4355C4.35007 47.2992 3.31457 47.817 3.01482 47.8442C2.74232 44.874 4.40457 39.3695 6.53007 35.7452C3.75057 39.6147 1.67957 46.945 2.27907 50.433C2.41532 51.1142 4.56807 51.7954 5.44007 51.1142C7.21132 49.3702 8.81907 46.6725 9.66382 44.5742C10.2906 43.0482 10.9991 40.5412 10.8356 39.0425C10.6176 40.5412 10.3996 41.9037 9.93632 43.0482Z" fill="#6EAFA5"/>
<path d="M5.52183 48.2257C5.44008 48.3892 5.19483 48.689 4.78608 48.6072C4.43183 48.5255 4.45908 48.0895 4.51358 47.8442C3.50533 48.0895 1.73408 48.9342 1.18908 50.1605C0.698577 51.2777 1.78858 52.2859 2.38808 52.3404C3.42358 52.4222 3.91408 51.632 3.91408 51.632C3.91408 51.632 4.92233 52.9127 6.03958 52.3404C7.02058 51.8227 6.25758 49.2885 5.52183 48.2257Z" fill="#F9CE8A"/>
<path d="M4.9223 50.4057C3.80505 50.4057 2.7968 49.8335 2.1973 48.9342C1.7613 49.2612 1.40705 49.67 1.2163 50.1332C0.725799 51.2505 1.8158 52.2587 2.4153 52.3132C3.4508 52.395 3.9413 51.6047 3.9413 51.6047C3.9413 51.6047 4.94955 52.8855 6.0668 52.3132C6.63905 52.0135 6.6118 51.0597 6.36655 50.0787C5.9033 50.2967 5.4128 50.4057 4.9223 50.4057Z" fill="#F2BA70"/>
<path d="M3.17835 61.9597C3.1511 58.826 0.344351 52.94 2.6606 49.343C3.06935 48.7162 4.7316 48.3347 5.4401 49.3975C5.7126 49.779 5.79435 52.6675 5.46735 54.248C4.7861 57.518 3.45085 60.1612 3.6416 62.6137L3.17835 61.9597Z" fill="#FFC397"/>
<path d="M4.26828 50.0242C4.81328 50.0242 5.30378 50.869 5.68528 52.177C5.71253 50.8962 5.63078 49.6427 5.46728 49.3975C4.75878 48.362 3.06928 48.7162 2.68778 49.343C1.37977 51.3595 1.62502 54.248 2.33352 57.082C2.44252 53.3215 3.17828 50.0242 4.26828 50.0242Z" fill="#EF8F6F"/>
<path d="M11.4624 32.1482L11.5442 24.2729L14.9504 25.5809L16.3402 31.5487C16.3674 31.5487 13.6969 33.2927 11.4624 32.1482Z" fill="#EF8F6F"/>
<path d="M15.7134 94.796H19.6374C19.6374 94.796 17.1849 93.1064 16.5581 93.4062C15.9586 93.7059 15.7134 94.796 15.7134 94.796Z" fill="#DDC99E"/>
<path d="M10.9446 31.9302L11.1898 31.249L14.7596 32.0937L13.7786 34.3827L10.9446 31.9302Z" fill="#BFEFE8"/>
<path d="M16.8033 30.6767L16.2038 30.4587L14.5415 32.2027L16.667 33.4835L16.8033 30.6767Z" fill="#BFEFE8"/>
<path d="M19.7736 57.736L18.5201 57.954L18.5746 58.717L19.8281 58.499L19.7736 57.736Z" fill="#AD687B"/>
<path d="M16.994 63.2132C18.2748 63.3767 19.7463 63.4585 20.6183 62.423C20.6183 62.423 20.046 64.3577 18.3565 64.5757C17.6753 64.6575 16.994 63.2132 16.994 63.2132Z" fill="#6B3444"/>
<path d="M10.9719 38.4702C10.9719 38.4702 11.1354 34.1647 7.97437 33.9195L8.30136 33.6742C10.2361 33.8922 11.2171 35.173 10.9719 38.4702Z" fill="#A2DDD4"/>
<path d="M22.0626 36.154C22.0626 36.154 21.2178 31.1672 16.7216 30.7312L17.9751 30.8402C19.9371 31.0582 21.7083 32.6387 22.0626 36.154Z" fill="#A2DDD4"/>
<path d="M12.8521 61.7417L13.3698 59.4527H14.5688L13.0428 62.8045L12.8521 61.7417Z" fill="#AD687B"/>
<path opacity="0.5" d="M12.1436 35.6907C16.3946 35.2547 19.7191 33.6197 19.5556 32.0392C19.5284 31.8212 19.4466 31.5487 19.2831 31.2217C19.2286 31.1945 19.1741 31.1672 19.1196 31.1672C18.7381 31.0037 18.3566 30.8947 17.9751 30.8675L17.7026 30.8402C17.4574 30.813 17.1849 30.7857 16.9124 30.7857H16.8034V30.7312L16.2039 30.5405L16.1221 30.6222L15.2229 26.8072C14.1056 26.0715 12.8249 25.6082 11.5441 25.6082L11.4624 31.3852L11.1626 31.3307L10.9174 32.012L10.9719 32.0665L10.8901 32.1482C9.85463 32.6387 8.87363 33.2382 8.05613 33.9195L7.94713 34.0012C7.94713 34.0012 7.94713 34.0012 7.97438 34.0012C7.45663 34.4645 7.02063 34.955 6.66638 35.4727C8.13788 35.7725 10.0454 35.9087 12.1436 35.6907ZM16.8034 30.7312H16.8306H16.8034Z" fill="#A0513C"/>
<path d="M11.5169 27.9517C10.2089 26.5347 7.94712 27.3522 8.08337 24.6545C8.08337 24.6545 6.85712 23.8097 7.23862 22.093C7.62012 20.3762 8.41037 20.1582 8.41037 20.1582C8.41037 20.1582 6.44837 19.368 7.81087 17.3787C9.20062 15.3895 10.5359 16.534 10.5359 16.534C10.5359 16.534 10.0181 15.2532 11.3806 14.7627C12.7431 14.2722 13.9966 15.4712 13.9966 15.4712C13.9966 15.4712 15.0321 13.9997 16.0949 14.2722C17.1576 14.5447 19.6101 15.7437 16.8579 19.7767C14.1056 23.837 11.5169 27.9517 11.5169 27.9517Z" fill="#B75A44"/>
<path d="M14.1056 18.5505C11.8439 18.5505 9.71837 18.169 8.87362 16.3705C8.54662 16.534 8.16512 16.8337 7.81087 17.3787C6.42112 19.368 8.41037 20.1582 8.41037 20.1582C8.41037 20.1582 7.62012 20.3762 7.23862 22.093C6.85712 23.8097 8.08337 24.6545 8.08337 24.6545C7.94712 27.3522 10.2089 26.5347 11.5169 27.9517C11.5169 27.9517 14.1056 23.837 16.8579 19.804C17.3211 19.1227 17.6481 18.496 17.8389 17.9782C16.8579 18.8775 15.6316 18.5505 14.1056 18.5505Z" fill="#8E3D2D"/>
<path d="M11.1081 21.7387C11.1081 21.7387 11.2989 28.088 12.7704 28.96C14.2419 29.832 15.4136 30.4587 17.9751 30.159C18.7109 27.5157 18.6019 23.401 18.1114 21.8477C17.9479 21.33 18.4929 20.894 18.3294 20.4852C17.2666 17.733 14.9504 16.3705 13.0429 17.1062C10.8356 17.9237 10.8629 19.5042 11.1081 21.7387Z" fill="#FFC397"/>
<path d="M15.359 22.6107C15.7133 22.3927 16.667 21.003 16.1765 20.8122C15.8768 20.7032 15.1955 20.7305 14.705 21.221C14.4053 21.5207 14.1328 22.2565 14.2418 22.42C14.487 22.747 14.9775 22.8287 15.359 22.6107Z" fill="#F7A27C"/>
<path d="M18.2476 22.2837C18.5474 23.6735 18.6564 26.017 18.3294 28.088C17.7299 28.0335 17.4301 25.7172 17.2121 23.946C16.9669 22.1475 16.3129 20.3217 18.0841 20.2945C18.2476 20.2945 18.4384 20.3762 18.6019 20.5397C18.4929 20.9212 17.9206 20.894 18.2476 22.2837Z" fill="#F7A27C"/>
<path d="M17.975 22.6108C18.0568 22.311 17.9205 21.7115 17.5663 21.7388C17.212 21.766 17.2393 22.42 17.2665 22.6925C17.3483 23.1285 17.866 23.074 17.975 22.6108Z" fill="#754B3C"/>
<path d="M18.1658 20.676C18.5745 20.7578 18.9833 20.1855 18.4928 20.0492C18.0023 19.913 17.539 19.804 17.4028 20.022C17.2665 20.24 17.1575 20.4035 17.2665 20.458C17.5935 20.6215 17.757 20.6215 18.1658 20.676Z" fill="#B75A44"/>
<path d="M14.9231 21.0575C14.5143 21.221 14.2963 20.7032 14.7596 20.4852C15.2228 20.2672 15.6588 20.0765 15.8496 20.2672C16.0403 20.4307 16.0948 20.676 15.9586 20.7032C15.8223 20.7032 15.3046 20.9212 14.9231 21.0575Z" fill="#B75A44"/>
<path d="M18.0841 26.9162L15.9314 26.8617C15.9314 26.8617 15.8769 27.8972 16.2039 28.0607C16.5309 28.2242 18.2204 28.8237 18.0841 26.9162Z" fill="#5B291F"/>
<path d="M16.0948 26.9435L16.1766 27.5975L17.9479 27.543L18.0023 26.998L16.0948 26.9435Z" fill="#FFF5DE"/>
<path d="M15.6588 22.5835C15.7405 22.2837 15.6043 21.6842 15.25 21.7115C14.8958 21.7387 14.923 22.3927 14.9775 22.6652C15.032 23.1012 15.5498 23.0467 15.6588 22.5835Z" fill="#754B3C"/>
<path d="M15.9325 26.6878C15.8586 26.7022 15.8128 26.7857 15.8301 26.8743C15.8474 26.963 15.9213 27.0231 15.9952 27.0087C16.069 26.9942 16.1149 26.9107 16.0975 26.8221C16.0802 26.7335 16.0063 26.6733 15.9325 26.6878Z" fill="#5B291F"/>
<path d="M16.3673 28.7147C16.3673 28.5785 16.6126 28.6057 16.8851 28.6057C17.1576 28.6057 17.3756 28.5785 17.3756 28.7147C17.3756 28.851 17.1576 28.9327 16.8578 28.9327C16.6126 28.96 16.3673 28.851 16.3673 28.7147Z" fill="#FFAE85"/>
<path d="M14.0783 28.415C12.6068 27.543 12.0891 21.112 12.0891 21.112C11.8983 19.4225 11.8438 18.1145 12.7431 17.2152C10.8628 18.0872 10.8901 19.6132 11.1353 21.7387C11.1353 21.7387 11.1626 28.2515 12.6341 29.0962C14.1056 29.9682 15.4953 30.6222 18.0568 30.2952C18.3021 30.268 18.3293 29.832 18.1386 29.6412C16.0131 29.723 15.3591 29.178 14.0783 28.415Z" fill="#8E3D2D"/>
<path d="M11.7077 24.9815C10.9447 24.3275 10.2362 24.2457 9.77291 25.0632C9.30966 25.8807 10.7812 27.2705 11.8984 26.8345C13.0157 26.3985 12.2254 25.3902 11.7077 24.9815Z" fill="#FFC397"/>
<path d="M11.4078 25.3085C10.9446 24.927 10.5358 24.8725 10.2633 25.363C9.99085 25.8535 10.8628 26.671 11.5441 26.4257C12.1981 26.1805 11.7076 25.581 11.4078 25.3085Z" fill="#EF8F6F"/>
<path d="M11.8166 25.7172C11.5168 25.472 11.2443 25.4447 11.0808 25.7445C10.8901 26.0442 11.4623 26.5892 11.8983 26.4257C12.3343 26.2622 12.0073 25.8807 11.8166 25.7172Z" fill="#FFC397"/>
<path d="M11.326 18.278C11.871 18.06 12.1708 21.1937 12.7976 25.8807L12.4978 26.0987C12.4978 26.0987 11.653 24.6 10.9445 24.4365C10.9173 24.4637 10.4813 18.6322 11.326 18.278Z" fill="#8E3D2D"/>
<path d="M16.4491 17.1607C16.4491 16.4522 15.2773 16.0162 13.8058 16.1797C12.3616 16.3432 11.1626 17.0517 11.1626 17.7602C11.1626 18.4687 12.3343 18.9047 13.8058 18.7412C15.2773 18.5777 16.4491 17.8692 16.4491 17.1607Z" fill="#B75A44"/>
<path d="M36.4778 50.6237C37.2135 50.7327 38.4125 51.9862 38.7668 51.4685C39.0665 51.0052 38.8485 49.8607 36.614 50.106L36.4778 50.6237Z" fill="#FFC397"/>
<path d="M37.7313 50.1877C37.1318 50.978 38.1401 51.632 38.5215 51.7682C38.9303 51.9317 39.557 51.4412 39.557 51.1142C39.5843 50.7872 37.9766 49.888 37.7313 50.1877Z" fill="#FFC397"/>
<path d="M38.9303 50.5965C39.5298 50.4602 40.1293 50.0515 40.0203 49.8607C39.9113 49.6427 39.448 50.0787 38.8758 50.0787C38.2763 50.0787 37.8948 50.106 37.8676 50.324C37.8676 50.5692 38.3308 50.7327 38.9303 50.5965Z" fill="#FFC397"/>
<path d="M39.9658 51.305C40.4835 51.4958 40.8378 51.4685 40.865 51.3323C40.9195 51.196 40.5925 51.1143 40.0748 50.9235C39.5298 50.7328 38.9303 50.4058 38.8758 50.542C38.8485 50.6783 39.448 51.1143 39.9658 51.305Z" fill="#FFC397"/>
<path d="M39.6388 51.8227C40.1293 52.0952 40.7015 52.1497 40.756 52.0135C40.8378 51.9045 40.32 51.741 39.8295 51.4685C39.339 51.196 39.012 51.0325 38.9303 51.1687C38.8485 51.2777 39.1483 51.5502 39.6388 51.8227Z" fill="#FFC397"/>
<path d="M38.9303 52.0407C39.4208 52.286 39.7751 52.3405 39.8568 52.2315C39.9113 52.1225 39.5571 51.9862 39.0666 51.741C38.5761 51.4957 38.2219 51.305 38.1401 51.4412C38.0584 51.5502 38.4399 51.7955 38.9303 52.0407Z" fill="#FFC397"/>
<path d="M15.1411 26.9435C16.4219 27.107 17.1849 27.1887 18.9834 26.8617C18.9834 26.8617 17.5119 26.0715 17.0214 26.126C16.5309 26.1532 15.3591 26.2895 15.1411 26.9435Z" fill="#8E3D2D"/>
<path d="M19.1469 26.126C17.7571 24.3547 17.1576 21.4662 16.9124 20.6215C15.7679 21.0847 17.0759 26.0715 17.0759 26.0715C17.0759 26.0715 18.5201 26.4802 19.1469 26.126Z" fill="#FFC397"/>
<path d="M9.94007 19.4086C10.6243 19.6836 11.2882 19.6348 11.4229 19.2996C11.5576 18.9645 11.1121 18.4699 10.4278 18.1949C9.74355 17.9199 9.07966 17.9687 8.94497 18.3038C8.81028 18.639 9.2558 19.1336 9.94007 19.4086Z" fill="#B75A44"/>
<path d="M10.5945 20.6655C11.006 20.756 11.3737 20.6745 11.4158 20.4835C11.4578 20.2924 11.1583 20.0641 10.7467 19.9735C10.3352 19.883 9.9675 19.9645 9.92546 20.1555C9.88341 20.3466 10.1829 20.5749 10.5945 20.6655Z" fill="#B75A44"/>
<path d="M3.45083 60.0522C3.15108 60.134 3.26008 61.0332 2.25183 61.4692C2.08833 61.551 1.81583 61.6327 1.54333 61.7417C1.08008 61.9325 0.671331 62.314 0.807581 62.5047C0.916581 62.641 1.18908 62.3685 1.51608 62.2322C1.81583 62.1232 1.89758 62.0687 1.92483 62.1232C1.95208 62.1777 1.62508 62.3957 1.24358 62.6682C0.780331 62.9952 0.535082 63.295 0.644082 63.4857C0.753082 63.6492 0.998332 63.3495 1.46158 63.1042C1.84308 62.8862 2.00658 62.75 2.14283 62.9135C2.19733 62.9952 1.95208 63.1587 1.65233 63.513C1.29808 63.9217 1.16183 64.276 1.29808 64.385C1.48883 64.5485 1.51608 64.2215 2.00658 63.8127C2.63333 63.2677 3.12383 62.6955 3.64158 62.6682C4.10483 62.641 4.24108 63.6765 4.56808 63.4585C4.84058 63.295 4.37733 62.532 3.94133 61.551C3.55983 60.7335 3.75058 59.9705 3.45083 60.0522Z" fill="#FFC397"/>
<path d="M20.9453 15.8527L23.2888 12.174L21.2178 11.7925L20.9453 15.8527Z" fill="#BCCE55"/>
<path d="M17.5118 12.3647L28.4391 13.6182L31.1368 2.39124L16.3673 4.21698L17.5118 12.3647Z" fill="#BCCE55"/>
<path d="M69.4231 13.5092L66.6163 9.80322L69.1233 9.42172L69.4231 13.5092Z" fill="#86EFD6"/>
<path d="M73.565 9.99398L60.4033 11.2747L57.1605 0.0477295L74.9275 1.87348L73.565 9.99398Z" fill="#86EFD6"/>
</svg>
